<?xml version="1.0" encoding="UTF-8"?>
<svg viewBox="0 0 288 432" xmlns="http://www.w3.org/2000/svg" xmlns:xlink="http://www.w3.org/1999/xlink">
  <defs>
    <style type='text/css'><![CDATA[
        line, polyline, polygon, path, rect, circle {
          fill: none;
          stroke: #000000;
          stroke-linecap: round;
          stroke-linejoin: round;
          stroke-miterlimit: 10.00;
        }
      ]]></style>
  </defs>
  <rect style="stroke: none; fill: #ffffff" width="100%" height="100%" />
  <defs>
    <clipPath id="clip_0_432_288_0">
      <rect x="0" y="0" width="288" height="432" />
    </clipPath>
  </defs>
  <rect style="fill: #FFFFFF; stroke: #FFFFFF; stroke-width: 1.07" clip-path="url(#clip_0_432_288_0)" x="0" y="0" width="288" height="432" />
  <defs>
    <clipPath id="clip_5_48_377_37_245_08_38_85">
      <rect x="5.48" y="38.85" width="239.6" height="338.52" />
    </clipPath>
  </defs>
  <rect style="fill: #FFFFFF; stroke: none" clip-path="url(#clip_5_48_377_37_245_08_38_85)" x="5.48" y="38.85" width="239.6" height="338.52" />
  <defs>
    <linearGradient id="simple-C8FF0EFF" x1="100%" y1="100%" x2="90.35%" y2="0%">
      <stop style="stop-color:#FFFFFF;stop-opacity:1" offset="0%" />
      <stop style="stop-color:#006DAA;stop-opacity:1" offset="100%" />
    </linearGradient>
  </defs>
  <polygon points="7.23,71.27 10.14,71.27 13.06,70.51 15.97,70.25 18.89,69.74 21.8,69.74 24.72,68.22 27.63,64.66 30.55,63.14 33.46,65.17 36.38,58.56 39.29,58.31 42.21,58.56 45.12,57.8 48.04,57.8 50.95,54.24 53.87,58.05 56.78,56.02 59.7,56.53 62.61,55.77 65.53,56.53 68.44,60.34 71.36,61.87 74.27,56.78 77.19,58.56 80.1,59.58 83.02,58.31 85.93,59.07 88.85,60.09 91.76,61.87 94.68,61.1 97.59,63.39 100.51,60.34 103.42,62.37 106.33,60.09 109.25,59.83 112.16,60.34 115.08,62.37 117.99,61.36 120.91,61.61 123.82,65.42 126.74,63.64 129.65,65.93 132.57,66.69 135.48,66.19 138.4,66.44 141.31,67.2 144.23,65.68 147.14,64.91 150.06,66.95 152.97,68.73 155.89,66.69 158.8,66.19 161.72,65.93 164.63,67.2 167.55,66.95 170.46,65.17 173.38,65.93 176.29,67.96 179.21,65.17 182.12,67.2 185.04,67.46 187.95,67.71 190.87,67.46 193.78,67.2 196.7,66.95 199.61,67.2 202.53,67.71 205.44,69.74 208.36,65.68 211.27,67.46 214.19,68.47 217.1,69.49 220.02,69.49 222.93,69.49 225.85,67.2 228.76,70.25 231.68,70 234.59,69.74 237.51,69.49 240.42,69.74 243.33,68.98 243.33,71.27 240.42,71.27 237.51,71.27 234.59,71.27 231.68,71.27 228.76,71.27 225.85,71.27 222.93,71.27 220.02,71.27 217.1,71.27 214.19,71.27 211.27,71.27 208.36,71.27 205.44,71.27 202.53,71.27 199.61,71.27 196.7,71.27 193.78,71.27 190.87,71.27 187.95,71.27 185.04,71.27 182.12,71.27 179.21,71.27 176.29,71.27 173.38,71.27 170.46,71.27 167.55,71.27 164.63,71.27 161.72,71.27 158.8,71.27 155.89,71.27 152.97,71.27 150.06,71.27 147.14,71.27 144.23,71.27 141.31,71.27 138.4,71.27 135.48,71.27 132.57,71.27 129.65,71.27 126.74,71.27 123.82,71.27 120.91,71.27 117.99,71.27 115.08,71.27 112.16,71.27 109.25,71.27 106.33,71.27 103.42,71.27 100.51,71.27 97.59,71.27 94.68,71.27 91.76,71.27 88.85,71.27 85.93,71.27 83.02,71.27 80.1,71.27 77.19,71.27 74.27,71.27 71.36,71.27 68.44,71.27 65.53,71.27 62.61,71.27 59.7,71.27 56.78,71.27 53.87,71.27 50.95,71.27 48.04,71.27 45.12,71.27 42.21,71.27 39.29,71.27 36.38,71.27 33.46,71.27 30.55,71.27 27.63,71.27 24.72,71.27 21.8,71.27 18.89,71.27 15.97,71.27 13.06,71.27 10.14,71.27 7.23,71.27" style="fill: url(#simple-C8FF0EFF); stroke: none" clip-path="url(#clip_5_48_377_37_245_08_38_85)" />
  <polyline points="7.23,71.27 10.14,71.27 13.06,70.51 15.97,70.25 18.89,69.74 21.8,69.74 24.72,68.22 27.63,64.66 30.55,63.14 33.46,65.17 36.38,58.56 39.29,58.31 42.21,58.56 45.12,57.8 48.04,57.8 50.95,54.24 53.87,58.05 56.78,56.02 59.7,56.53 62.61,55.77 65.53,56.53 68.44,60.34 71.36,61.87 74.27,56.78 77.19,58.56 80.1,59.58 83.02,58.31 85.93,59.07 88.85,60.09 91.76,61.87 94.68,61.1 97.59,63.39 100.51,60.34 103.42,62.37 106.33,60.09 109.25,59.83 112.16,60.34 115.08,62.37 117.99,61.36 120.91,61.61 123.82,65.42 126.74,63.64 129.65,65.93 132.57,66.69 135.48,66.19 138.4,66.44 141.31,67.2 144.23,65.68 147.14,64.91 150.06,66.95 152.97,68.73 155.89,66.69 158.8,66.19 161.72,65.93 164.63,67.2 167.55,66.95 170.46,65.17 173.38,65.93 176.29,67.96 179.21,65.17 182.12,67.2 185.04,67.46 187.95,67.71 190.87,67.46 193.78,67.2 196.7,66.95 199.61,67.2 202.53,67.71 205.44,69.74 208.36,65.68 211.27,67.46 214.19,68.47 217.1,69.49 220.02,69.49 222.93,69.49 225.85,67.2 228.76,70.25 231.68,70 234.59,69.74 237.51,69.49 240.42,69.74 243.33,68.98" style="stroke: none" clip-path="url(#clip_5_48_377_37_245_08_38_85)" />
  <polygon points="7.23,83.38 10.14,83.13 13.06,82.87 15.97,82.11 18.89,81.35 21.8,81.6 24.72,77.28 27.63,77.79 30.55,77.28 33.46,73.47 36.38,73.47 39.29,70.67 42.21,65.08 45.12,69.66 48.04,64.07 50.95,67.88 53.87,68.39 56.78,64.58 59.7,66.1 62.61,68.64 65.53,66.61 68.44,67.37 71.36,67.63 74.27,68.9 77.19,70.93 80.1,68.9 83.02,71.69 85.93,69.66 88.85,70.42 91.76,69.15 94.68,71.44 97.59,73.72 100.51,75.5 103.42,73.72 106.33,71.18 109.25,72.45 112.16,73.98 115.08,74.49 117.99,74.99 120.91,78.04 123.82,77.79 126.74,76.27 129.65,76.77 132.57,76.01 135.48,76.27 138.4,77.79 141.31,79.06 144.23,78.3 147.14,79.32 150.06,78.3 152.97,78.55 155.89,77.79 158.8,76.52 161.72,79.82 164.63,78.55 167.55,79.82 170.46,78.55 173.38,76.52 176.29,79.32 179.21,79.57 182.12,77.79 185.04,79.82 187.95,80.33 190.87,79.82 193.78,78.55 196.7,81.35 199.61,79.32 202.53,79.06 205.44,81.35 208.36,80.33 211.27,80.08 214.19,80.33 217.1,80.33 220.02,80.84 222.93,80.84 225.85,80.08 228.76,81.35 231.68,81.09 234.59,82.62 237.51,81.35 240.42,82.36 243.33,80.59 243.33,83.38 240.42,83.38 237.51,83.38 234.59,83.38 231.68,83.38 228.76,83.38 225.85,83.38 222.93,83.38 220.02,83.38 217.1,83.38 214.19,83.38 211.27,83.38 208.36,83.38 205.44,83.38 202.53,83.38 199.61,83.38 196.7,83.38 193.78,83.38 190.87,83.38 187.95,83.38 185.04,83.38 182.12,83.38 179.21,83.38 176.29,83.38 173.38,83.38 170.46,83.38 167.55,83.38 164.63,83.38 161.72,83.38 158.8,83.38 155.89,83.38 152.97,83.38 150.06,83.38 147.14,83.38 144.23,83.38 141.31,83.38 138.4,83.38 135.48,83.38 132.57,83.38 129.65,83.38 126.74,83.38 123.82,83.38 120.91,83.38 117.99,83.38 115.08,83.38 112.16,83.38 109.25,83.38 106.33,83.38 103.42,83.38 100.51,83.38 97.59,83.38 94.68,83.38 91.76,83.38 88.85,83.38 85.93,83.38 83.02,83.38 80.1,83.38 77.19,83.38 74.27,83.38 71.36,83.38 68.44,83.38 65.53,83.38 62.61,83.38 59.7,83.38 56.78,83.38 53.87,83.38 50.95,83.38 48.04,83.38 45.12,83.38 42.21,83.38 39.29,83.38 36.38,83.38 33.46,83.38 30.55,83.38 27.63,83.38 24.72,83.38 21.8,83.38 18.89,83.38 15.97,83.38 13.06,83.38 10.14,83.38 7.23,83.38" style="fill: url(#simple-C8FF0EFF); stroke: none" clip-path="url(#clip_5_48_377_37_245_08_38_85)" />
  <polyline points="7.23,83.38 10.14,83.13 13.06,82.87 15.97,82.11 18.89,81.35 21.8,81.6 24.72,77.28 27.63,77.79 30.55,77.28 33.46,73.47 36.38,73.47 39.29,70.67 42.21,65.08 45.12,69.66 48.04,64.07 50.95,67.88 53.87,68.39 56.78,64.58 59.7,66.1 62.61,68.64 65.53,66.61 68.44,67.37 71.36,67.63 74.27,68.9 77.19,70.93 80.1,68.9 83.02,71.69 85.93,69.66 88.85,70.42 91.76,69.15 94.68,71.44 97.59,73.72 100.51,75.5 103.42,73.72 106.33,71.18 109.25,72.45 112.16,73.98 115.08,74.49 117.99,74.99 120.91,78.04 123.82,77.79 126.74,76.27 129.65,76.77 132.57,76.01 135.48,76.27 138.4,77.79 141.31,79.06 144.23,78.3 147.14,79.32 150.06,78.3 152.97,78.55 155.89,77.79 158.8,76.52 161.72,79.82 164.63,78.55 167.55,79.82 170.46,78.55 173.38,76.52 176.29,79.32 179.21,79.57 182.12,77.79 185.04,79.82 187.95,80.33 190.87,79.82 193.78,78.55 196.7,81.35 199.61,79.32 202.53,79.06 205.44,81.35 208.36,80.33 211.27,80.08 214.19,80.33 217.1,80.33 220.02,80.84 222.93,80.84 225.85,80.08 228.76,81.35 231.68,81.09 234.59,82.62 237.51,81.35 240.42,82.36 243.33,80.59" style="stroke: none" clip-path="url(#clip_5_48_377_37_245_08_38_85)" />
  <polygon points="7.23,95.49 10.14,95.49 13.06,95.24 15.97,94.99 18.89,93.72 21.8,92.7 24.72,92.44 27.63,89.4 30.55,89.14 33.46,84.06 36.38,85.08 39.29,78.72 42.21,78.98 45.12,79.23 48.04,77.96 50.95,79.23 53.87,78.47 56.78,75.16 59.7,75.16 62.61,76.94 65.53,77.45 68.44,76.69 71.36,78.72 74.27,77.2 77.19,81.26 80.1,79.23 83.02,82.53 85.93,79.74 88.85,79.74 91.76,81.77 94.68,79.99 97.59,81.26 100.51,82.28 103.42,80.5 106.33,80.5 109.25,84.31 112.16,85.33 115.08,85.08 117.99,87.11 120.91,89.65 123.82,85.58 126.74,89.4 129.65,88.38 132.57,88.63 135.48,90.16 138.4,89.4 141.31,90.92 144.23,91.94 147.14,89.14 150.06,89.4 152.97,90.92 155.89,90.67 158.8,91.43 161.72,91.43 164.63,91.17 167.55,90.41 170.46,92.19 173.38,91.43 176.29,92.44 179.21,91.17 182.12,91.94 185.04,93.21 187.95,90.16 190.87,91.43 193.78,92.19 196.7,93.46 199.61,93.21 202.53,90.92 205.44,92.19 208.36,92.19 211.27,93.21 214.19,92.19 217.1,92.19 220.02,92.7 222.93,93.21 225.85,94.99 228.76,92.95 231.68,93.72 234.59,92.7 237.51,94.48 240.42,94.22 243.33,93.46 243.33,95.49 240.42,95.49 237.51,95.49 234.59,95.49 231.68,95.49 228.76,95.49 225.85,95.49 222.93,95.49 220.02,95.49 217.1,95.49 214.19,95.49 211.27,95.49 208.36,95.49 205.44,95.49 202.53,95.49 199.61,95.49 196.7,95.49 193.78,95.49 190.87,95.49 187.95,95.49 185.04,95.49 182.12,95.49 179.21,95.49 176.29,95.49 173.38,95.49 170.46,95.49 167.55,95.49 164.63,95.49 161.72,95.49 158.8,95.49 155.89,95.49 152.97,95.49 150.06,95.49 147.14,95.49 144.23,95.49 141.31,95.49 138.4,95.49 135.48,95.49 132.57,95.49 129.65,95.49 126.74,95.49 123.82,95.49 120.91,95.49 117.99,95.49 115.08,95.49 112.16,95.49 109.25,95.49 106.33,95.49 103.42,95.49 100.51,95.49 97.59,95.49 94.68,95.49 91.76,95.49 88.85,95.49 85.93,95.49 83.02,95.49 80.1,95.49 77.19,95.49 74.27,95.49 71.36,95.49 68.44,95.49 65.53,95.49 62.61,95.49 59.7,95.49 56.78,95.49 53.87,95.49 50.95,95.49 48.04,95.49 45.12,95.49 42.21,95.49 39.29,95.49 36.38,95.49 33.46,95.49 30.55,95.49 27.63,95.49 24.72,95.49 21.8,95.49 18.89,95.49 15.97,95.49 13.06,95.49 10.14,95.49 7.23,95.49" style="fill: url(#simple-C8FF0EFF); stroke: none" clip-path="url(#clip_5_48_377_37_245_08_38_85)" />
  <polyline points="7.23,95.49 10.14,95.49 13.06,95.24 15.97,94.99 18.89,93.72 21.8,92.7 24.72,92.44 27.63,89.4 30.55,89.14 33.46,84.06 36.38,85.08 39.29,78.72 42.21,78.98 45.12,79.23 48.04,77.96 50.95,79.23 53.87,78.47 56.78,75.16 59.7,75.16 62.61,76.94 65.53,77.45 68.44,76.69 71.36,78.72 74.27,77.2 77.19,81.26 80.1,79.23 83.02,82.53 85.93,79.74 88.85,79.74 91.76,81.77 94.68,79.99 97.59,81.26 100.51,82.28 103.42,80.5 106.33,80.5 109.25,84.31 112.16,85.33 115.08,85.08 117.99,87.11 120.91,89.65 123.82,85.58 126.74,89.4 129.65,88.38 132.57,88.63 135.48,90.16 138.4,89.4 141.31,90.92 144.23,91.94 147.14,89.14 150.06,89.4 152.97,90.92 155.89,90.67 158.8,91.43 161.72,91.43 164.63,91.17 167.55,90.41 170.46,92.19 173.38,91.43 176.29,92.44 179.21,91.17 182.12,91.94 185.04,93.21 187.95,90.16 190.87,91.43 193.78,92.19 196.7,93.46 199.61,93.21 202.53,90.92 205.44,92.19 208.36,92.19 211.27,93.21 214.19,92.19 217.1,92.19 220.02,92.7 222.93,93.21 225.85,94.99 228.76,92.95 231.68,93.72 234.59,92.7 237.51,94.48 240.42,94.22 243.33,93.46" style="stroke: none" clip-path="url(#clip_5_48_377_37_245_08_38_85)" />
  <polygon points="7.23,107.61 10.14,107.61 13.06,107.1 15.97,107.1 18.89,105.32 21.8,102.53 24.72,103.03 27.63,100.75 30.55,97.44 33.46,96.68 36.38,96.93 39.29,95.92 42.21,93.88 45.12,92.11 48.04,88.8 50.95,88.8 53.87,89.06 56.78,87.02 59.7,86.77 62.61,82.45 65.53,86.01 68.44,83.72 71.36,85.5 74.27,88.8 77.19,86.77 80.1,91.85 83.02,94.14 85.93,98.71 88.85,93.63 91.76,94.65 94.68,92.61 97.59,96.68 100.51,96.17 103.42,97.19 106.33,98.71 109.25,95.66 112.16,95.66 115.08,97.7 117.99,96.43 120.91,95.41 123.82,98.21 126.74,100.75 129.65,102.27 132.57,101.25 135.48,101.25 138.4,102.53 141.31,102.27 144.23,102.02 147.14,101.76 150.06,103.29 152.97,105.32 155.89,104.81 158.8,103.54 161.72,103.29 164.63,104.05 167.55,102.27 170.46,105.07 173.38,103.54 176.29,103.8 179.21,103.54 182.12,101.51 185.04,103.29 187.95,104.81 190.87,104.56 193.78,103.29 196.7,102.53 199.61,104.05 202.53,105.07 205.44,105.57 208.36,104.05 211.27,103.54 214.19,105.07 217.1,104.56 220.02,103.03 222.93,105.32 225.85,105.83 228.76,105.83 231.68,105.83 234.59,105.83 237.51,107.1 240.42,106.59 243.33,103.54 243.33,107.61 240.42,107.61 237.51,107.61 234.59,107.61 231.68,107.61 228.76,107.61 225.85,107.61 222.93,107.61 220.02,107.61 217.1,107.61 214.19,107.61 211.27,107.61 208.36,107.61 205.44,107.61 202.53,107.61 199.61,107.61 196.7,107.61 193.78,107.61 190.87,107.61 187.95,107.61 185.04,107.61 182.12,107.61 179.21,107.61 176.29,107.61 173.38,107.61 170.46,107.61 167.55,107.61 164.63,107.61 161.72,107.61 158.8,107.61 155.89,107.61 152.97,107.61 150.06,107.61 147.14,107.61 144.23,107.61 141.31,107.61 138.4,107.61 135.48,107.61 132.57,107.61 129.65,107.61 126.74,107.61 123.82,107.61 120.91,107.61 117.99,107.61 115.08,107.61 112.16,107.61 109.25,107.61 106.33,107.61 103.42,107.61 100.51,107.61 97.59,107.61 94.68,107.61 91.76,107.61 88.85,107.61 85.93,107.61 83.02,107.61 80.1,107.61 77.19,107.61 74.27,107.61 71.36,107.61 68.44,107.61 65.53,107.61 62.61,107.61 59.7,107.61 56.78,107.61 53.87,107.61 50.95,107.61 48.04,107.61 45.12,107.61 42.21,107.61 39.29,107.61 36.38,107.61 33.46,107.61 30.55,107.61 27.63,107.61 24.72,107.61 21.8,107.61 18.89,107.61 15.97,107.61 13.06,107.61 10.14,107.61 7.23,107.61" style="fill: url(#simple-C8FF0EFF); stroke: none" clip-path="url(#clip_5_48_377_37_245_08_38_85)" />
  <polyline points="7.23,107.61 10.14,107.61 13.06,107.1 15.97,107.1 18.89,105.32 21.8,102.53 24.72,103.03 27.63,100.75 30.55,97.44 33.46,96.68 36.38,96.93 39.29,95.92 42.21,93.88 45.12,92.11 48.04,88.8 50.95,88.8 53.87,89.06 56.78,87.02 59.7,86.77 62.61,82.45 65.53,86.01 68.44,83.72 71.36,85.5 74.27,88.8 77.19,86.77 80.1,91.85 83.02,94.14 85.93,98.71 88.85,93.63 91.76,94.65 94.68,92.61 97.59,96.68 100.51,96.17 103.42,97.19 106.33,98.71 109.25,95.66 112.16,95.66 115.08,97.7 117.99,96.43 120.91,95.41 123.82,98.21 126.74,100.75 129.65,102.27 132.57,101.25 135.48,101.25 138.4,102.53 141.31,102.27 144.23,102.02 147.14,101.76 150.06,103.29 152.97,105.32 155.89,104.81 158.8,103.54 161.72,103.29 164.63,104.05 167.55,102.27 170.46,105.07 173.38,103.54 176.29,103.8 179.21,103.54 182.12,101.51 185.04,103.29 187.95,104.81 190.87,104.56 193.78,103.29 196.7,102.53 199.61,104.05 202.53,105.07 205.44,105.57 208.36,104.05 211.27,103.54 214.19,105.07 217.1,104.56 220.02,103.03 222.93,105.32 225.85,105.83 228.76,105.83 231.68,105.83 234.59,105.83 237.51,107.1 240.42,106.59 243.33,103.54" style="stroke: none" clip-path="url(#clip_5_48_377_37_245_08_38_85)" />
  <polygon points="7.23,119.72 10.14,119.72 13.06,119.47 15.97,118.96 18.89,118.45 21.8,116.42 24.72,114.64 27.63,111.08 30.55,111.33 33.46,106.51 36.38,105.49 39.29,97.87 42.21,104.22 45.12,100.15 48.04,98.37 50.95,95.83 53.87,98.12 56.78,100.15 59.7,100.66 62.61,97.87 65.53,102.44 68.44,99.65 71.36,100.15 74.27,100.41 77.19,100.92 80.1,104.73 83.02,104.22 85.93,104.22 88.85,105.49 91.76,101.42 94.68,107.52 97.59,106.25 100.51,108.29 103.42,102.69 106.33,106.51 109.25,107.27 112.16,106.76 115.08,108.29 117.99,105.74 120.91,105.74 123.82,108.54 126.74,112.35 129.65,113.11 132.57,111.33 135.48,113.11 138.4,114.38 141.31,113.11 144.23,112.61 147.14,114.13 150.06,114.13 152.97,114.89 155.89,114.89 158.8,114.89 161.72,115.91 164.63,115.66 167.55,116.16 170.46,115.66 173.38,114.38 176.29,116.93 179.21,116.16 182.12,116.16 185.04,115.15 187.95,113.62 190.87,117.18 193.78,117.43 196.7,114.89 199.61,116.42 202.53,117.69 205.44,117.94 208.36,116.93 211.27,117.43 214.19,117.18 217.1,117.18 220.02,117.94 222.93,117.18 225.85,117.94 228.76,118.45 231.68,116.93 234.59,118.2 237.51,118.96 240.42,118.45 243.33,115.91 243.33,119.72 240.42,119.72 237.51,119.72 234.59,119.72 231.68,119.72 228.76,119.72 225.85,119.72 222.93,119.72 220.02,119.72 217.1,119.72 214.19,119.72 211.27,119.72 208.36,119.72 205.44,119.72 202.53,119.72 199.61,119.72 196.7,119.72 193.78,119.72 190.87,119.72 187.95,119.72 185.04,119.72 182.12,119.72 179.21,119.72 176.29,119.72 173.38,119.72 170.46,119.72 167.55,119.72 164.63,119.72 161.72,119.72 158.8,119.72 155.89,119.72 152.97,119.72 150.06,119.72 147.14,119.72 144.23,119.72 141.31,119.72 138.4,119.72 135.48,119.72 132.57,119.72 129.65,119.72 126.74,119.72 123.82,119.72 120.91,119.72 117.99,119.72 115.08,119.72 112.16,119.72 109.25,119.72 106.33,119.72 103.42,119.72 100.51,119.72 97.59,119.72 94.68,119.72 91.76,119.72 88.85,119.72 85.93,119.72 83.02,119.72 80.1,119.72 77.19,119.72 74.27,119.72 71.36,119.72 68.44,119.72 65.53,119.72 62.61,119.72 59.7,119.72 56.78,119.72 53.87,119.72 50.95,119.72 48.04,119.72 45.12,119.72 42.21,119.72 39.29,119.72 36.38,119.72 33.46,119.72 30.55,119.72 27.63,119.72 24.72,119.72 21.8,119.72 18.89,119.72 15.97,119.72 13.06,119.72 10.14,119.72 7.23,119.72" style="fill: url(#simple-C8FF0EFF); stroke: none" clip-path="url(#clip_5_48_377_37_245_08_38_85)" />
  <polyline points="7.23,119.72 10.14,119.72 13.06,119.47 15.97,118.96 18.89,118.45 21.8,116.42 24.72,114.64 27.63,111.08 30.55,111.33 33.46,106.51 36.38,105.49 39.29,97.87 42.21,104.22 45.12,100.15 48.04,98.37 50.95,95.83 53.87,98.12 56.78,100.15 59.7,100.66 62.61,97.87 65.53,102.44 68.44,99.65 71.36,100.15 74.27,100.41 77.19,100.92 80.1,104.73 83.02,104.22 85.93,104.22 88.85,105.49 91.76,101.42 94.68,107.52 97.59,106.25 100.51,108.29 103.42,102.69 106.33,106.51 109.25,107.27 112.16,106.76 115.08,108.29 117.99,105.74 120.91,105.74 123.82,108.54 126.74,112.35 129.65,113.11 132.57,111.33 135.48,113.11 138.4,114.38 141.31,113.11 144.23,112.61 147.14,114.13 150.06,114.13 152.97,114.89 155.89,114.89 158.8,114.89 161.72,115.91 164.63,115.66 167.55,116.16 170.46,115.66 173.38,114.38 176.29,116.93 179.21,116.16 182.12,116.16 185.04,115.15 187.95,113.62 190.87,117.18 193.78,117.43 196.7,114.89 199.61,116.42 202.53,117.69 205.44,117.94 208.36,116.93 211.27,117.43 214.19,117.18 217.1,117.18 220.02,117.94 222.93,117.18 225.85,117.94 228.76,118.45 231.68,116.93 234.59,118.2 237.51,118.96 240.42,118.45 243.33,115.91" style="stroke: none" clip-path="url(#clip_5_48_377_37_245_08_38_85)" />
  <polygon points="7.23,131.83 10.14,131.83 13.06,131.58 15.97,130.82 18.89,130.56 21.8,130.56 24.72,123.19 27.63,124.97 30.55,119.13 33.46,119.13 36.38,119.13 39.29,116.84 42.21,112.52 45.12,115.32 48.04,109.98 50.95,110.23 53.87,109.47 56.78,104.9 59.7,109.98 62.61,105.15 65.53,105.91 68.44,107.44 71.36,103.63 74.27,107.44 77.19,109.98 80.1,113.79 83.02,111 85.93,115.82 88.85,117.86 91.76,116.84 94.68,116.59 97.59,112.27 100.51,119.64 103.42,119.38 106.33,117.35 109.25,119.89 112.16,119.64 115.08,119.89 117.99,119.89 120.91,118.87 123.82,122.43 126.74,124.21 129.65,125.74 132.57,124.72 135.48,122.94 138.4,124.97 141.31,128.28 144.23,127.01 147.14,127.51 150.06,128.53 152.97,125.23 155.89,127.26 158.8,128.53 161.72,127.77 164.63,128.28 167.55,126.75 170.46,126.5 173.38,128.28 176.29,126.5 179.21,126.5 182.12,129.55 185.04,130.31 187.95,128.53 190.87,127.77 193.78,129.55 196.7,128.78 199.61,128.28 202.53,127.77 205.44,128.53 208.36,130.56 211.27,129.8 214.19,130.31 217.1,128.02 220.02,128.53 222.93,130.31 225.85,130.31 228.76,129.8 231.68,129.8 234.59,130.06 237.51,130.56 240.42,130.31 243.33,128.53 243.33,131.83 240.42,131.83 237.51,131.83 234.59,131.83 231.68,131.83 228.76,131.83 225.85,131.83 222.93,131.83 220.02,131.83 217.1,131.83 214.19,131.83 211.27,131.83 208.36,131.83 205.44,131.83 202.53,131.83 199.61,131.83 196.7,131.83 193.78,131.83 190.87,131.83 187.95,131.83 185.04,131.83 182.12,131.83 179.21,131.83 176.29,131.83 173.38,131.83 170.46,131.83 167.55,131.83 164.63,131.83 161.72,131.83 158.8,131.83 155.89,131.83 152.97,131.83 150.06,131.83 147.14,131.83 144.23,131.83 141.31,131.83 138.4,131.83 135.48,131.83 132.57,131.83 129.65,131.83 126.74,131.83 123.82,131.83 120.91,131.83 117.99,131.83 115.08,131.83 112.16,131.83 109.25,131.83 106.33,131.83 103.42,131.83 100.51,131.83 97.59,131.83 94.68,131.83 91.76,131.83 88.85,131.83 85.93,131.83 83.02,131.83 80.1,131.83 77.19,131.83 74.27,131.83 71.36,131.83 68.44,131.83 65.53,131.83 62.61,131.83 59.7,131.83 56.78,131.83 53.87,131.83 50.95,131.83 48.04,131.83 45.12,131.83 42.21,131.83 39.29,131.83 36.38,131.83 33.46,131.83 30.55,131.83 27.63,131.83 24.72,131.83 21.8,131.83 18.89,131.83 15.97,131.83 13.06,131.83 10.14,131.83 7.23,131.83" style="fill: url(#simple-C8FF0EFF); stroke: none" clip-path="url(#clip_5_48_377_37_245_08_38_85)" />
  <polyline points="7.23,131.83 10.14,131.83 13.06,131.58 15.97,130.82 18.89,130.56 21.8,130.56 24.72,123.19 27.63,124.97 30.55,119.13 33.46,119.13 36.38,119.13 39.29,116.84 42.21,112.52 45.12,115.32 48.04,109.98 50.95,110.23 53.87,109.47 56.78,104.9 59.7,109.98 62.61,105.15 65.53,105.91 68.44,107.44 71.36,103.63 74.27,107.44 77.19,109.98 80.1,113.79 83.02,111 85.93,115.82 88.85,117.86 91.76,116.84 94.68,116.59 97.59,112.27 100.51,119.64 103.42,119.38 106.33,117.35 109.25,119.89 112.16,119.64 115.08,119.89 117.99,119.89 120.91,118.87 123.82,122.43 126.74,124.21 129.65,125.74 132.57,124.72 135.48,122.94 138.4,124.97 141.31,128.28 144.23,127.01 147.14,127.51 150.06,128.53 152.97,125.23 155.89,127.26 158.8,128.53 161.72,127.77 164.63,128.28 167.55,126.75 170.46,126.5 173.38,128.28 176.29,126.5 179.21,126.5 182.12,129.55 185.04,130.31 187.95,128.53 190.87,127.77 193.78,129.55 196.7,128.78 199.61,128.28 202.53,127.77 205.44,128.53 208.36,130.56 211.27,129.8 214.19,130.31 217.1,128.02 220.02,128.53 222.93,130.31 225.85,130.31 228.76,129.8 231.68,129.8 234.59,130.06 237.51,130.56 240.42,130.31 243.33,128.53" style="stroke: none" clip-path="url(#clip_5_48_377_37_245_08_38_85)" />
  <polygon points="7.23,143.95 10.14,143.95 13.06,143.69 15.97,142.93 18.89,143.19 21.8,141.41 24.72,138.61 27.63,136.07 30.55,131.75 33.46,130.99 36.38,130.22 39.29,128.95 42.21,127.18 45.12,127.43 48.04,125.65 50.95,124.89 53.87,119.3 56.78,117.52 59.7,119.3 62.61,119.55 65.53,112.44 68.44,120.57 71.36,119.04 74.27,120.57 77.19,118.79 80.1,121.33 83.02,119.81 85.93,120.82 88.85,125.4 91.76,126.16 94.68,130.48 97.59,128.19 100.51,130.48 103.42,127.18 106.33,131.5 109.25,129.72 112.16,133.53 115.08,130.48 117.99,133.02 120.91,133.02 123.82,132 126.74,134.04 129.65,133.78 132.57,136.83 135.48,134.04 138.4,136.83 141.31,137.59 144.23,139.63 147.14,140.39 150.06,138.61 152.97,139.37 155.89,140.9 158.8,140.39 161.72,140.64 164.63,137.85 167.55,139.63 170.46,139.12 173.38,140.64 176.29,141.15 179.21,139.12 182.12,139.63 185.04,140.9 187.95,141.15 190.87,139.63 193.78,140.14 196.7,139.63 199.61,141.66 202.53,140.64 205.44,139.63 208.36,138.87 211.27,141.41 214.19,141.66 217.1,140.9 220.02,139.88 222.93,141.66 225.85,142.68 228.76,141.66 231.68,141.41 234.59,142.68 237.51,142.93 240.42,142.68 243.33,140.39 243.33,143.95 240.42,143.95 237.51,143.95 234.59,143.95 231.68,143.95 228.76,143.95 225.85,143.95 222.93,143.95 220.02,143.95 217.1,143.95 214.19,143.95 211.27,143.95 208.36,143.95 205.44,143.95 202.53,143.95 199.61,143.95 196.7,143.95 193.78,143.95 190.87,143.95 187.95,143.95 185.04,143.95 182.12,143.95 179.21,143.95 176.29,143.95 173.38,143.95 170.46,143.95 167.55,143.95 164.63,143.95 161.72,143.95 158.8,143.95 155.89,143.95 152.97,143.95 150.06,143.95 147.14,143.95 144.23,143.95 141.31,143.95 138.4,143.95 135.48,143.95 132.57,143.95 129.65,143.95 126.74,143.95 123.82,143.95 120.91,143.95 117.99,143.95 115.08,143.95 112.16,143.95 109.25,143.95 106.33,143.95 103.42,143.95 100.51,143.95 97.59,143.95 94.68,143.95 91.76,143.95 88.85,143.95 85.93,143.95 83.02,143.95 80.1,143.95 77.19,143.95 74.27,143.95 71.36,143.95 68.44,143.95 65.53,143.95 62.61,143.95 59.7,143.95 56.78,143.95 53.87,143.95 50.95,143.95 48.04,143.95 45.12,143.95 42.21,143.95 39.29,143.95 36.38,143.95 33.46,143.95 30.55,143.95 27.63,143.95 24.72,143.95 21.8,143.95 18.89,143.95 15.97,143.95 13.06,143.95 10.14,143.95 7.23,143.95" style="fill: url(#simple-C8FF0EFF); stroke: none" clip-path="url(#clip_5_48_377_37_245_08_38_85)" />
  <polyline points="7.23,143.95 10.14,143.95 13.06,143.69 15.97,142.93 18.89,143.19 21.8,141.41 24.72,138.61 27.63,136.07 30.55,131.75 33.46,130.99 36.38,130.22 39.29,128.95 42.21,127.18 45.12,127.43 48.04,125.65 50.95,124.89 53.87,119.3 56.78,117.52 59.7,119.3 62.61,119.55 65.53,112.44 68.44,120.57 71.36,119.04 74.27,120.57 77.19,118.79 80.1,121.33 83.02,119.81 85.93,120.82 88.85,125.4 91.76,126.16 94.68,130.48 97.59,128.19 100.51,130.48 103.42,127.18 106.33,131.5 109.25,129.72 112.16,133.53 115.08,130.48 117.99,133.02 120.91,133.02 123.82,132 126.74,134.04 129.65,133.78 132.57,136.83 135.48,134.04 138.4,136.83 141.31,137.59 144.23,139.63 147.14,140.39 150.06,138.61 152.97,139.37 155.89,140.9 158.8,140.39 161.72,140.64 164.63,137.85 167.55,139.63 170.46,139.12 173.38,140.64 176.29,141.15 179.21,139.12 182.12,139.63 185.04,140.9 187.95,141.15 190.87,139.63 193.78,140.14 196.7,139.63 199.61,141.66 202.53,140.64 205.44,139.63 208.36,138.87 211.27,141.41 214.19,141.66 217.1,140.9 220.02,139.88 222.93,141.66 225.85,142.68 228.76,141.66 231.68,141.41 234.59,142.68 237.51,142.93 240.42,142.68 243.33,140.39" style="stroke: none" clip-path="url(#clip_5_48_377_37_245_08_38_85)" />
  <polygon points="7.23,155.81 10.14,156.06 13.06,155.81 15.97,155.81 18.89,155.55 21.8,153.52 24.72,152.76 27.63,149.96 30.55,146.91 33.46,146.4 36.38,143.61 39.29,142.85 42.21,139.8 45.12,139.54 48.04,140.05 50.95,136.75 53.87,137.26 56.78,131.66 59.7,133.95 62.61,133.19 65.53,132.68 68.44,131.16 71.36,135.99 74.27,130.9 77.19,134.46 80.1,135.48 83.02,130.65 85.93,131.16 88.85,137.76 91.76,135.99 94.68,138.27 97.59,141.58 100.51,136.75 103.42,140.81 106.33,144.37 109.25,140.81 112.16,142.34 115.08,142.85 117.99,143.86 120.91,146.15 123.82,144.88 126.74,146.91 129.65,147.93 132.57,147.67 135.48,150.22 138.4,149.96 141.31,147.67 144.23,150.72 147.14,150.47 150.06,149.45 152.97,152.76 155.89,153.01 158.8,151.99 161.72,153.01 164.63,151.74 167.55,150.98 170.46,153.01 173.38,151.99 176.29,152.5 179.21,152.76 182.12,151.99 185.04,154.54 187.95,153.52 190.87,151.23 193.78,151.74 196.7,153.01 199.61,154.03 202.53,153.52 205.44,151.99 208.36,154.03 211.27,154.54 214.19,154.54 217.1,155.81 220.02,153.77 222.93,152.76 225.85,154.03 228.76,153.01 231.68,154.79 234.59,154.54 237.51,154.79 240.42,155.04 243.33,153.77 243.33,156.06 240.42,156.06 237.51,156.06 234.59,156.06 231.68,156.06 228.76,156.06 225.85,156.06 222.93,156.06 220.02,156.06 217.1,156.06 214.19,156.06 211.27,156.06 208.36,156.06 205.44,156.06 202.53,156.06 199.61,156.06 196.7,156.06 193.78,156.06 190.87,156.06 187.95,156.06 185.04,156.06 182.12,156.06 179.21,156.06 176.29,156.06 173.38,156.06 170.46,156.06 167.55,156.06 164.63,156.06 161.72,156.06 158.8,156.06 155.89,156.06 152.97,156.06 150.06,156.06 147.14,156.06 144.23,156.06 141.31,156.06 138.4,156.06 135.48,156.06 132.57,156.06 129.65,156.06 126.74,156.06 123.82,156.06 120.91,156.06 117.99,156.06 115.08,156.06 112.16,156.06 109.25,156.06 106.33,156.06 103.42,156.06 100.51,156.06 97.59,156.06 94.68,156.06 91.76,156.06 88.85,156.06 85.93,156.06 83.02,156.06 80.1,156.06 77.19,156.06 74.27,156.06 71.36,156.06 68.44,156.06 65.53,156.06 62.61,156.06 59.7,156.06 56.78,156.06 53.87,156.06 50.95,156.06 48.04,156.06 45.12,156.06 42.21,156.06 39.29,156.06 36.38,156.06 33.46,156.06 30.55,156.06 27.63,156.06 24.72,156.06 21.8,156.06 18.89,156.06 15.97,156.06 13.06,156.06 10.14,156.06 7.23,156.06" style="fill: url(#simple-C8FF0EFF); stroke: none" clip-path="url(#clip_5_48_377_37_245_08_38_85)" />
  <polyline points="7.23,155.81 10.14,156.06 13.06,155.81 15.97,155.81 18.89,155.55 21.8,153.52 24.72,152.76 27.63,149.96 30.55,146.91 33.46,146.4 36.38,143.61 39.29,142.85 42.21,139.8 45.12,139.54 48.04,140.05 50.95,136.75 53.87,137.26 56.78,131.66 59.7,133.95 62.61,133.19 65.53,132.68 68.44,131.16 71.36,135.99 74.27,130.9 77.19,134.46 80.1,135.48 83.02,130.65 85.93,131.16 88.85,137.76 91.76,135.99 94.68,138.27 97.59,141.58 100.51,136.75 103.42,140.81 106.33,144.37 109.25,140.81 112.16,142.34 115.08,142.85 117.99,143.86 120.91,146.15 123.82,144.88 126.74,146.91 129.65,147.93 132.57,147.67 135.48,150.22 138.4,149.96 141.31,147.67 144.23,150.72 147.14,150.47 150.06,149.45 152.97,152.76 155.89,153.01 158.8,151.99 161.72,153.01 164.63,151.74 167.55,150.98 170.46,153.01 173.38,151.99 176.29,152.5 179.21,152.76 182.12,151.99 185.04,154.54 187.95,153.52 190.87,151.23 193.78,151.74 196.7,153.01 199.61,154.03 202.53,153.52 205.44,151.99 208.36,154.03 211.27,154.54 214.19,154.54 217.1,155.81 220.02,153.77 222.93,152.76 225.85,154.03 228.76,153.01 231.68,154.79 234.59,154.54 237.51,154.79 240.42,155.04 243.33,153.77" style="stroke: none" clip-path="url(#clip_5_48_377_37_245_08_38_85)" />
  <polygon points="7.23,168.17 10.14,168.17 13.06,167.67 15.97,167.67 18.89,166.65 21.8,166.65 24.72,165.38 27.63,162.33 30.55,160.3 33.46,156.23 36.38,154.96 39.29,152.42 42.21,152.16 45.12,151.66 48.04,149.37 50.95,145.56 53.87,148.86 56.78,143.52 59.7,144.03 62.61,141.75 65.53,146.07 68.44,142.76 71.36,144.79 74.27,144.03 77.19,139.71 80.1,142 83.02,145.81 85.93,152.16 88.85,150.64 91.76,147.08 94.68,145.3 97.59,148.61 100.51,155.98 103.42,151.91 106.33,156.23 109.25,154.71 112.16,154.96 115.08,155.47 117.99,154.96 120.91,155.98 123.82,156.74 126.74,155.98 129.65,161.06 132.57,157.76 135.48,159.79 138.4,161.57 141.31,162.33 144.23,161.31 147.14,163.35 150.06,163.35 152.97,163.85 155.89,164.36 158.8,164.11 161.72,163.6 164.63,162.58 167.55,165.63 170.46,164.62 173.38,164.36 176.29,165.38 179.21,164.36 182.12,166.4 185.04,164.36 187.95,162.08 190.87,162.84 193.78,165.38 196.7,164.36 199.61,165.63 202.53,164.62 205.44,164.36 208.36,165.63 211.27,163.85 214.19,163.6 217.1,166.14 220.02,166.9 222.93,166.14 225.85,165.89 228.76,165.38 231.68,166.65 234.59,167.16 237.51,166.9 240.42,167.16 243.33,164.11 243.33,168.17 240.42,168.17 237.51,168.17 234.59,168.17 231.68,168.17 228.76,168.17 225.85,168.17 222.93,168.17 220.02,168.17 217.1,168.17 214.19,168.17 211.27,168.17 208.36,168.17 205.44,168.17 202.53,168.17 199.61,168.17 196.7,168.17 193.78,168.17 190.87,168.17 187.95,168.17 185.04,168.17 182.12,168.17 179.21,168.17 176.29,168.17 173.38,168.17 170.46,168.17 167.55,168.17 164.63,168.17 161.72,168.17 158.8,168.17 155.89,168.17 152.97,168.17 150.06,168.17 147.14,168.17 144.23,168.17 141.31,168.17 138.4,168.17 135.48,168.17 132.57,168.17 129.65,168.17 126.74,168.17 123.82,168.17 120.91,168.17 117.99,168.17 115.08,168.17 112.16,168.17 109.25,168.17 106.33,168.17 103.42,168.17 100.51,168.17 97.59,168.17 94.68,168.17 91.76,168.17 88.85,168.17 85.93,168.17 83.02,168.17 80.1,168.17 77.19,168.17 74.27,168.17 71.36,168.17 68.44,168.17 65.53,168.17 62.61,168.17 59.7,168.17 56.78,168.17 53.87,168.17 50.95,168.17 48.04,168.17 45.12,168.17 42.21,168.17 39.29,168.17 36.38,168.17 33.46,168.17 30.55,168.17 27.63,168.17 24.72,168.17 21.8,168.17 18.89,168.17 15.97,168.17 13.06,168.17 10.14,168.17 7.23,168.17" style="fill: url(#simple-C8FF0EFF); stroke: none" clip-path="url(#clip_5_48_377_37_245_08_38_85)" />
  <polyline points="7.23,168.17 10.14,168.17 13.06,167.67 15.97,167.67 18.89,166.65 21.8,166.65 24.72,165.38 27.63,162.33 30.55,160.3 33.46,156.23 36.38,154.96 39.29,152.42 42.21,152.16 45.12,151.66 48.04,149.37 50.95,145.56 53.87,148.86 56.78,143.52 59.7,144.03 62.61,141.75 65.53,146.07 68.44,142.76 71.36,144.79 74.27,144.03 77.19,139.71 80.1,142 83.02,145.81 85.93,152.16 88.85,150.64 91.76,147.08 94.68,145.3 97.59,148.61 100.51,155.98 103.42,151.91 106.33,156.23 109.25,154.71 112.16,154.96 115.08,155.47 117.99,154.96 120.91,155.98 123.82,156.74 126.74,155.98 129.65,161.06 132.57,157.76 135.48,159.79 138.4,161.57 141.31,162.33 144.23,161.31 147.14,163.35 150.06,163.35 152.97,163.85 155.89,164.36 158.8,164.11 161.72,163.6 164.63,162.58 167.55,165.63 170.46,164.62 173.38,164.36 176.29,165.38 179.21,164.36 182.12,166.4 185.04,164.36 187.95,162.08 190.87,162.84 193.78,165.38 196.7,164.36 199.61,165.63 202.53,164.62 205.44,164.36 208.36,165.63 211.27,163.85 214.19,163.6 217.1,166.14 220.02,166.9 222.93,166.14 225.85,165.89 228.76,165.38 231.68,166.65 234.59,167.16 237.51,166.9 240.42,167.16 243.33,164.11" style="stroke: none" clip-path="url(#clip_5_48_377_37_245_08_38_85)" />
  <polygon points="7.23,180.29 10.14,180.29 13.06,180.03 15.97,179.02 18.89,178.51 21.8,177.49 24.72,176.98 27.63,175.46 30.55,171.9 33.46,172.92 36.38,165.04 39.29,169.87 42.21,163.77 45.12,163.52 48.04,163.01 50.95,160.72 53.87,157.16 56.78,158.69 59.7,159.45 62.61,156.15 65.53,158.43 68.44,160.21 71.36,158.69 74.27,157.16 77.19,158.43 80.1,155.64 83.02,156.65 85.93,161.23 88.85,162.5 91.76,160.72 94.68,166.31 97.59,164.28 100.51,166.82 103.42,164.79 106.33,168.85 109.25,166.31 112.16,170.12 115.08,166.06 117.99,171.65 120.91,169.87 123.82,170.88 126.74,170.12 129.65,171.39 132.57,173.93 135.48,172.92 138.4,173.17 141.31,174.95 144.23,175.46 147.14,173.93 150.06,176.22 152.97,175.71 155.89,177.49 158.8,177.24 161.72,175.46 164.63,178.25 167.55,175.46 170.46,176.22 173.38,176.73 176.29,176.73 179.21,175.97 182.12,178.25 185.04,176.73 187.95,176.22 190.87,177.75 193.78,178.25 196.7,178.51 199.61,177.75 202.53,175.97 205.44,178.25 208.36,178 211.27,175.21 214.19,176.73 217.1,176.98 220.02,179.53 222.93,179.27 225.85,179.27 228.76,178 231.68,178 234.59,176.98 237.51,178.25 240.42,179.78 243.33,177.49 243.33,180.29 240.42,180.29 237.51,180.29 234.59,180.29 231.68,180.29 228.76,180.29 225.85,180.29 222.93,180.29 220.02,180.29 217.1,180.29 214.19,180.29 211.27,180.29 208.36,180.29 205.44,180.29 202.53,180.29 199.61,180.29 196.7,180.29 193.78,180.29 190.87,180.29 187.95,180.29 185.04,180.29 182.12,180.29 179.21,180.29 176.29,180.29 173.38,180.29 170.46,180.29 167.55,180.29 164.63,180.29 161.72,180.29 158.8,180.29 155.89,180.29 152.97,180.29 150.06,180.29 147.14,180.29 144.23,180.29 141.31,180.29 138.4,180.29 135.48,180.29 132.57,180.29 129.65,180.29 126.74,180.29 123.82,180.29 120.91,180.29 117.99,180.29 115.08,180.29 112.16,180.29 109.25,180.29 106.33,180.29 103.42,180.29 100.51,180.29 97.59,180.29 94.68,180.29 91.76,180.29 88.85,180.29 85.93,180.29 83.02,180.29 80.1,180.29 77.19,180.29 74.27,180.29 71.36,180.29 68.44,180.29 65.53,180.29 62.61,180.29 59.7,180.29 56.78,180.29 53.87,180.29 50.95,180.29 48.04,180.29 45.12,180.29 42.21,180.29 39.29,180.29 36.38,180.29 33.46,180.29 30.55,180.29 27.63,180.29 24.72,180.29 21.8,180.29 18.89,180.29 15.97,180.29 13.06,180.29 10.14,180.29 7.23,180.29" style="fill: url(#simple-C8FF0EFF); stroke: none" clip-path="url(#clip_5_48_377_37_245_08_38_85)" />
  <polyline points="7.23,180.29 10.14,180.29 13.06,180.03 15.97,179.02 18.89,178.51 21.8,177.49 24.72,176.98 27.63,175.46 30.55,171.9 33.46,172.92 36.38,165.04 39.29,169.87 42.21,163.77 45.12,163.52 48.04,163.01 50.95,160.72 53.87,157.16 56.78,158.69 59.7,159.45 62.61,156.15 65.53,158.43 68.44,160.21 71.36,158.69 74.27,157.16 77.19,158.43 80.1,155.64 83.02,156.65 85.93,161.23 88.85,162.5 91.76,160.72 94.68,166.31 97.59,164.28 100.51,166.82 103.42,164.79 106.33,168.85 109.25,166.31 112.16,170.12 115.08,166.06 117.99,171.65 120.91,169.87 123.82,170.88 126.74,170.12 129.65,171.39 132.57,173.93 135.48,172.92 138.4,173.17 141.31,174.95 144.23,175.46 147.14,173.93 150.06,176.22 152.97,175.71 155.89,177.49 158.8,177.24 161.72,175.46 164.63,178.25 167.55,175.46 170.46,176.22 173.38,176.73 176.29,176.73 179.21,175.97 182.12,178.25 185.04,176.73 187.95,176.22 190.87,177.75 193.78,178.25 196.7,178.51 199.61,177.75 202.53,175.97 205.44,178.25 208.36,178 211.27,175.21 214.19,176.73 217.1,176.98 220.02,179.53 222.93,179.27 225.85,179.27 228.76,178 231.68,178 234.59,176.98 237.51,178.25 240.42,179.78 243.33,177.49" style="stroke: none" clip-path="url(#clip_5_48_377_37_245_08_38_85)" />
  <polygon points="7.23,192.15 10.14,192.15 13.06,192.15 15.97,191.38 18.89,190.88 21.8,191.64 24.72,189.35 27.63,188.33 30.55,186.56 33.46,185.29 36.38,178.68 39.29,181.98 42.21,180.2 45.12,178.68 48.04,179.19 50.95,178.42 53.87,175.63 56.78,178.17 59.7,173.85 62.61,173.09 65.53,169.78 68.44,168.51 71.36,171.31 74.27,170.29 77.19,169.02 80.1,174.1 83.02,171.82 85.93,172.58 88.85,173.6 91.76,173.09 94.68,175.12 97.59,176.9 100.51,180.46 103.42,179.44 106.33,178.42 109.25,178.68 112.16,180.46 115.08,183.76 117.99,179.69 120.91,180.97 123.82,180.46 126.74,185.03 129.65,183.51 132.57,185.29 135.48,183.76 138.4,185.29 141.31,185.29 144.23,189.1 147.14,186.81 150.06,187.57 152.97,189.61 155.89,188.08 158.8,188.84 161.72,189.35 164.63,188.08 167.55,189.61 170.46,190.11 173.38,190.62 176.29,188.84 179.21,190.62 182.12,189.86 185.04,188.84 187.95,188.33 190.87,189.35 193.78,188.33 196.7,190.11 199.61,188.59 202.53,190.37 205.44,189.61 208.36,188.84 211.27,190.62 214.19,189.86 217.1,189.1 220.02,190.88 222.93,190.62 225.85,191.38 228.76,190.88 231.68,191.13 234.59,191.38 237.51,191.38 240.42,191.89 243.33,187.32 243.33,192.4 240.42,192.4 237.51,192.4 234.59,192.4 231.68,192.4 228.76,192.4 225.85,192.4 222.93,192.4 220.02,192.4 217.1,192.4 214.19,192.4 211.27,192.4 208.36,192.4 205.44,192.4 202.53,192.4 199.61,192.4 196.7,192.4 193.78,192.4 190.87,192.4 187.95,192.4 185.04,192.4 182.12,192.4 179.21,192.4 176.29,192.4 173.38,192.4 170.46,192.4 167.55,192.4 164.63,192.4 161.72,192.4 158.8,192.4 155.89,192.4 152.97,192.4 150.06,192.4 147.14,192.4 144.23,192.4 141.31,192.4 138.4,192.4 135.48,192.4 132.57,192.4 129.65,192.4 126.74,192.4 123.82,192.4 120.91,192.4 117.99,192.4 115.08,192.4 112.16,192.4 109.25,192.4 106.33,192.4 103.42,192.4 100.51,192.4 97.59,192.4 94.68,192.4 91.76,192.4 88.85,192.4 85.93,192.4 83.02,192.4 80.1,192.4 77.19,192.4 74.27,192.4 71.36,192.4 68.44,192.4 65.53,192.4 62.61,192.4 59.7,192.4 56.78,192.4 53.87,192.4 50.95,192.4 48.04,192.4 45.12,192.4 42.21,192.4 39.29,192.4 36.38,192.4 33.46,192.4 30.55,192.4 27.63,192.4 24.72,192.4 21.8,192.4 18.89,192.4 15.97,192.4 13.06,192.4 10.14,192.4 7.23,192.4" style="fill: url(#simple-C8FF0EFF); stroke: none" clip-path="url(#clip_5_48_377_37_245_08_38_85)" />
  <polyline points="7.23,192.15 10.14,192.15 13.06,192.15 15.97,191.38 18.89,190.88 21.8,191.64 24.72,189.35 27.63,188.33 30.55,186.56 33.46,185.29 36.38,178.68 39.29,181.98 42.21,180.2 45.12,178.68 48.04,179.19 50.95,178.42 53.87,175.63 56.78,178.17 59.7,173.85 62.61,173.09 65.53,169.78 68.44,168.51 71.36,171.31 74.27,170.29 77.19,169.02 80.1,174.1 83.02,171.82 85.93,172.58 88.85,173.6 91.76,173.09 94.68,175.12 97.59,176.9 100.51,180.46 103.42,179.44 106.33,178.42 109.25,178.68 112.16,180.46 115.08,183.76 117.99,179.69 120.91,180.97 123.82,180.46 126.74,185.03 129.65,183.51 132.57,185.29 135.48,183.76 138.4,185.29 141.31,185.29 144.23,189.1 147.14,186.81 150.06,187.57 152.97,189.61 155.89,188.08 158.8,188.84 161.72,189.35 164.63,188.08 167.55,189.61 170.46,190.11 173.38,190.62 176.29,188.84 179.21,190.62 182.12,189.86 185.04,188.84 187.95,188.33 190.87,189.35 193.78,188.33 196.7,190.11 199.61,188.59 202.53,190.37 205.44,189.61 208.36,188.84 211.27,190.62 214.19,189.86 217.1,189.1 220.02,190.88 222.93,190.62 225.85,191.38 228.76,190.88 231.68,191.13 234.59,191.38 237.51,191.38 240.42,191.89 243.33,187.32" style="stroke: none" clip-path="url(#clip_5_48_377_37_245_08_38_85)" />
  <polygon points="7.23,204.51 10.14,204.51 13.06,204.51 15.97,204.01 18.89,203.24 21.8,202.23 24.72,201.72 27.63,202.48 30.55,199.43 33.46,197.91 36.38,193.33 39.29,194.6 42.21,195.62 45.12,185.45 48.04,191.81 50.95,187.49 53.87,188 56.78,190.79 59.7,186.47 62.61,185.2 65.53,186.98 68.44,185.2 71.36,181.13 74.27,181.9 77.19,186.47 80.1,180.12 83.02,178.85 85.93,182.66 88.85,181.64 91.76,184.95 94.68,186.47 97.59,188.5 100.51,186.47 103.42,186.47 106.33,189.77 109.25,193.84 112.16,191.3 115.08,193.08 117.99,195.87 120.91,195.87 123.82,194.86 126.74,193.84 129.65,192.82 132.57,194.6 135.48,195.11 138.4,195.11 141.31,196.89 144.23,195.62 147.14,200.19 150.06,200.19 152.97,200.45 155.89,198.92 158.8,201.46 161.72,200.19 164.63,199.18 167.55,199.94 170.46,202.23 173.38,200.7 176.29,200.96 179.21,199.69 182.12,201.21 185.04,201.97 187.95,201.21 190.87,200.45 193.78,201.97 196.7,201.97 199.61,202.48 202.53,199.69 205.44,202.74 208.36,201.72 211.27,202.99 214.19,200.7 217.1,201.72 220.02,200.7 222.93,200.96 225.85,201.97 228.76,203.24 231.68,202.48 234.59,202.23 237.51,202.99 240.42,204.26 243.33,198.42 243.33,204.51 240.42,204.51 237.51,204.51 234.59,204.51 231.68,204.51 228.76,204.51 225.85,204.51 222.93,204.51 220.02,204.51 217.1,204.51 214.19,204.51 211.27,204.51 208.36,204.51 205.44,204.51 202.53,204.51 199.61,204.51 196.7,204.51 193.78,204.51 190.87,204.51 187.95,204.51 185.04,204.51 182.12,204.51 179.21,204.51 176.29,204.51 173.38,204.51 170.46,204.51 167.55,204.51 164.63,204.51 161.72,204.51 158.8,204.51 155.89,204.51 152.97,204.51 150.06,204.51 147.14,204.51 144.23,204.51 141.31,204.51 138.4,204.51 135.48,204.51 132.57,204.51 129.65,204.51 126.74,204.51 123.82,204.51 120.91,204.51 117.99,204.51 115.08,204.51 112.16,204.51 109.25,204.51 106.33,204.51 103.42,204.51 100.51,204.51 97.59,204.51 94.68,204.51 91.76,204.51 88.85,204.51 85.93,204.51 83.02,204.51 80.1,204.51 77.19,204.51 74.27,204.51 71.36,204.51 68.44,204.51 65.53,204.51 62.61,204.51 59.7,204.51 56.78,204.51 53.87,204.51 50.95,204.51 48.04,204.51 45.12,204.51 42.21,204.51 39.29,204.51 36.38,204.51 33.46,204.51 30.55,204.51 27.63,204.51 24.72,204.51 21.8,204.51 18.89,204.51 15.97,204.51 13.06,204.51 10.14,204.51 7.23,204.51" style="fill: url(#simple-C8FF0EFF); stroke: none" clip-path="url(#clip_5_48_377_37_245_08_38_85)" />
  <polyline points="7.23,204.51 10.14,204.51 13.06,204.51 15.97,204.01 18.89,203.24 21.8,202.23 24.72,201.72 27.63,202.48 30.55,199.43 33.46,197.91 36.38,193.33 39.29,194.6 42.21,195.62 45.12,185.45 48.04,191.81 50.95,187.49 53.87,188 56.78,190.79 59.7,186.47 62.61,185.2 65.53,186.98 68.44,185.2 71.36,181.13 74.27,181.9 77.19,186.47 80.1,180.12 83.02,178.85 85.93,182.66 88.85,181.64 91.76,184.95 94.68,186.47 97.59,188.5 100.51,186.47 103.42,186.47 106.33,189.77 109.25,193.84 112.16,191.3 115.08,193.08 117.99,195.87 120.91,195.87 123.82,194.86 126.74,193.84 129.65,192.82 132.57,194.6 135.48,195.11 138.4,195.11 141.31,196.89 144.23,195.62 147.14,200.19 150.06,200.19 152.97,200.45 155.89,198.92 158.8,201.46 161.72,200.19 164.63,199.18 167.55,199.94 170.46,202.23 173.38,200.7 176.29,200.96 179.21,199.69 182.12,201.21 185.04,201.97 187.95,201.21 190.87,200.45 193.78,201.97 196.7,201.97 199.61,202.48 202.53,199.69 205.44,202.74 208.36,201.72 211.27,202.99 214.19,200.7 217.1,201.72 220.02,200.7 222.93,200.96 225.85,201.97 228.76,203.24 231.68,202.48 234.59,202.23 237.51,202.99 240.42,204.26 243.33,198.42" style="stroke: none" clip-path="url(#clip_5_48_377_37_245_08_38_85)" />
  <polygon points="7.23,216.63 10.14,216.37 13.06,216.37 15.97,215.87 18.89,215.87 21.8,214.85 24.72,213.58 27.63,214.09 30.55,210.02 33.46,209.51 36.38,209.77 39.29,206.46 42.21,205.45 45.12,203.67 48.04,204.68 50.95,199.86 53.87,204.68 56.78,200.11 59.7,202.4 62.61,198.84 65.53,197.31 68.44,196.55 71.36,192.23 74.27,196.3 77.19,188.67 80.1,198.58 83.02,190.96 85.93,190.96 88.85,196.04 91.76,198.33 94.68,198.33 97.59,200.11 100.51,198.84 103.42,197.82 106.33,200.62 109.25,203.41 112.16,204.18 115.08,205.45 117.99,201.89 120.91,203.16 123.82,203.92 126.74,205.7 129.65,205.7 132.57,208.75 135.48,211.29 138.4,208.75 141.31,209.51 144.23,206.72 147.14,208.75 150.06,209.51 152.97,210.78 155.89,212.05 158.8,212.31 161.72,211.04 164.63,212.56 167.55,212.05 170.46,213.58 173.38,212.56 176.29,214.09 179.21,214.34 182.12,214.09 185.04,212.56 187.95,213.58 190.87,214.09 193.78,214.85 196.7,214.85 199.61,214.85 202.53,214.09 205.44,214.85 208.36,214.59 211.27,213.32 214.19,214.59 217.1,214.34 220.02,215.1 222.93,213.83 225.85,215.1 228.76,215.1 231.68,215.36 234.59,215.61 237.51,215.61 240.42,215.87 243.33,212.56 243.33,216.63 240.42,216.63 237.51,216.63 234.59,216.63 231.68,216.63 228.76,216.63 225.85,216.63 222.93,216.63 220.02,216.63 217.1,216.63 214.19,216.63 211.27,216.63 208.36,216.63 205.44,216.63 202.53,216.63 199.61,216.63 196.7,216.63 193.78,216.63 190.87,216.63 187.95,216.63 185.04,216.63 182.12,216.63 179.21,216.63 176.29,216.63 173.38,216.63 170.46,216.63 167.55,216.63 164.63,216.63 161.72,216.63 158.8,216.63 155.89,216.63 152.97,216.63 150.06,216.63 147.14,216.63 144.23,216.63 141.31,216.63 138.4,216.63 135.48,216.63 132.57,216.63 129.65,216.63 126.74,216.63 123.82,216.63 120.91,216.63 117.99,216.63 115.08,216.63 112.16,216.63 109.25,216.63 106.33,216.63 103.42,216.63 100.51,216.63 97.59,216.63 94.68,216.63 91.76,216.63 88.85,216.63 85.93,216.63 83.02,216.63 80.1,216.63 77.19,216.63 74.27,216.63 71.36,216.63 68.44,216.63 65.53,216.63 62.61,216.63 59.7,216.63 56.78,216.63 53.87,216.63 50.95,216.63 48.04,216.63 45.12,216.63 42.21,216.63 39.29,216.63 36.38,216.63 33.46,216.63 30.55,216.63 27.63,216.63 24.72,216.63 21.8,216.63 18.89,216.63 15.97,216.63 13.06,216.63 10.14,216.63 7.23,216.63" style="fill: url(#simple-C8FF0EFF); stroke: none" clip-path="url(#clip_5_48_377_37_245_08_38_85)" />
  <polyline points="7.23,216.63 10.14,216.37 13.06,216.37 15.97,215.87 18.89,215.87 21.8,214.85 24.72,213.58 27.63,214.09 30.55,210.02 33.46,209.51 36.38,209.77 39.29,206.46 42.21,205.45 45.12,203.67 48.04,204.68 50.95,199.86 53.87,204.68 56.78,200.11 59.7,202.4 62.61,198.84 65.53,197.31 68.44,196.55 71.36,192.23 74.27,196.3 77.19,188.67 80.1,198.58 83.02,190.96 85.93,190.96 88.85,196.04 91.76,198.33 94.68,198.33 97.59,200.11 100.51,198.84 103.42,197.82 106.33,200.62 109.25,203.41 112.16,204.18 115.08,205.45 117.99,201.89 120.91,203.16 123.82,203.92 126.74,205.7 129.65,205.7 132.57,208.75 135.48,211.29 138.4,208.75 141.31,209.51 144.23,206.72 147.14,208.75 150.06,209.51 152.97,210.78 155.89,212.05 158.8,212.31 161.72,211.04 164.63,212.56 167.55,212.05 170.46,213.58 173.38,212.56 176.29,214.09 179.21,214.34 182.12,214.09 185.04,212.56 187.95,213.58 190.87,214.09 193.78,214.85 196.7,214.85 199.61,214.85 202.53,214.09 205.44,214.85 208.36,214.59 211.27,213.32 214.19,214.59 217.1,214.34 220.02,215.1 222.93,213.83 225.85,215.1 228.76,215.1 231.68,215.36 234.59,215.61 237.51,215.61 240.42,215.87 243.33,212.56" style="stroke: none" clip-path="url(#clip_5_48_377_37_245_08_38_85)" />
  <polygon points="7.23,228.74 10.14,228.74 13.06,228.74 15.97,228.74 18.89,228.23 21.8,226.96 24.72,227.98 27.63,224.67 30.55,224.93 33.46,221.63 36.38,220.61 39.29,219.59 42.21,216.03 45.12,219.59 48.04,216.54 50.95,212.73 53.87,213.75 56.78,211.97 59.7,212.73 62.61,213.24 65.53,213.49 68.44,211.46 71.36,210.7 74.27,210.44 77.19,209.94 80.1,205.87 83.02,208.66 85.93,205.11 88.85,206.63 91.76,212.99 94.68,211.97 97.59,212.22 100.51,209.94 103.42,214.76 106.33,211.71 109.25,213.75 112.16,216.29 115.08,213.75 117.99,219.08 120.91,218.32 123.82,220.35 126.74,219.34 129.65,219.34 132.57,219.34 135.48,219.85 138.4,221.63 141.31,221.37 144.23,222.39 147.14,221.12 150.06,222.9 152.97,223.91 155.89,223.66 158.8,223.66 161.72,224.42 164.63,223.91 167.55,225.69 170.46,226.71 173.38,226.96 176.29,225.18 179.21,226.2 182.12,226.71 185.04,224.67 187.95,225.95 190.87,227.98 193.78,225.95 196.7,226.2 199.61,226.45 202.53,224.93 205.44,226.71 208.36,226.2 211.27,226.2 214.19,226.96 217.1,226.96 220.02,226.71 222.93,225.18 225.85,226.45 228.76,226.45 231.68,227.98 234.59,227.72 237.51,227.98 240.42,227.98 243.33,224.17 243.33,228.74 240.42,228.74 237.51,228.74 234.59,228.74 231.68,228.74 228.76,228.74 225.85,228.74 222.93,228.74 220.02,228.74 217.1,228.74 214.19,228.74 211.27,228.74 208.36,228.74 205.44,228.74 202.53,228.74 199.61,228.74 196.7,228.74 193.78,228.74 190.87,228.74 187.95,228.74 185.04,228.74 182.12,228.74 179.21,228.74 176.29,228.74 173.38,228.74 170.46,228.74 167.55,228.74 164.63,228.74 161.72,228.74 158.8,228.74 155.89,228.74 152.97,228.74 150.06,228.74 147.14,228.74 144.23,228.74 141.31,228.74 138.4,228.74 135.48,228.74 132.57,228.74 129.65,228.74 126.74,228.74 123.82,228.74 120.91,228.74 117.99,228.74 115.08,228.74 112.16,228.74 109.25,228.74 106.33,228.74 103.42,228.74 100.51,228.74 97.59,228.74 94.68,228.74 91.76,228.74 88.85,228.74 85.93,228.74 83.02,228.74 80.1,228.74 77.19,228.74 74.27,228.74 71.36,228.74 68.44,228.74 65.53,228.74 62.61,228.74 59.7,228.74 56.78,228.74 53.87,228.74 50.95,228.74 48.04,228.74 45.12,228.74 42.21,228.74 39.29,228.74 36.38,228.74 33.46,228.74 30.55,228.74 27.63,228.74 24.72,228.74 21.8,228.74 18.89,228.74 15.97,228.74 13.06,228.74 10.14,228.74 7.23,228.74" style="fill: url(#simple-C8FF0EFF); stroke: none" clip-path="url(#clip_5_48_377_37_245_08_38_85)" />
  <polyline points="7.23,228.74 10.14,228.74 13.06,228.74 15.97,228.74 18.89,228.23 21.8,226.96 24.72,227.98 27.63,224.67 30.55,224.93 33.46,221.63 36.38,220.61 39.29,219.59 42.21,216.03 45.12,219.59 48.04,216.54 50.95,212.73 53.87,213.75 56.78,211.97 59.7,212.73 62.61,213.24 65.53,213.49 68.44,211.46 71.36,210.7 74.27,210.44 77.19,209.94 80.1,205.87 83.02,208.66 85.93,205.11 88.85,206.63 91.76,212.99 94.68,211.97 97.59,212.22 100.51,209.94 103.42,214.76 106.33,211.71 109.25,213.75 112.16,216.29 115.08,213.75 117.99,219.08 120.91,218.32 123.82,220.35 126.74,219.34 129.65,219.34 132.57,219.34 135.48,219.85 138.4,221.63 141.31,221.37 144.23,222.39 147.14,221.12 150.06,222.9 152.97,223.91 155.89,223.66 158.8,223.66 161.72,224.42 164.63,223.91 167.55,225.69 170.46,226.71 173.38,226.96 176.29,225.18 179.21,226.2 182.12,226.71 185.04,224.67 187.95,225.95 190.87,227.98 193.78,225.95 196.7,226.2 199.61,226.45 202.53,224.93 205.44,226.71 208.36,226.2 211.27,226.2 214.19,226.96 217.1,226.96 220.02,226.71 222.93,225.18 225.85,226.45 228.76,226.45 231.68,227.98 234.59,227.72 237.51,227.98 240.42,227.98 243.33,224.17" style="stroke: none" clip-path="url(#clip_5_48_377_37_245_08_38_85)" />
  <polygon points="7.23,240.85 10.14,240.85 13.06,240.6 15.97,240.35 18.89,240.85 21.8,240.09 24.72,239.08 27.63,238.57 30.55,236.53 33.46,235.77 36.38,234.76 39.29,231.71 42.21,230.43 45.12,229.42 48.04,226.37 50.95,227.64 53.87,222.81 56.78,225.86 59.7,222.56 62.61,224.34 65.53,224.34 68.44,223.57 71.36,215.95 74.27,219.76 77.19,217.47 80.1,222.3 83.02,217.47 85.93,217.98 88.85,221.03 91.76,220.27 94.68,217.22 97.59,221.03 100.51,222.56 103.42,227.39 106.33,226.62 109.25,223.32 112.16,227.39 115.08,225.61 117.99,230.43 120.91,229.93 123.82,229.67 126.74,228.91 129.65,232.21 132.57,230.94 135.48,233.48 138.4,234.5 141.31,234.5 144.23,234.5 147.14,233.74 150.06,234.25 152.97,236.79 155.89,237.3 158.8,235.26 161.72,235.26 164.63,236.28 167.55,238.06 170.46,238.06 173.38,239.08 176.29,238.31 179.21,237.3 182.12,238.57 185.04,239.33 187.95,238.82 190.87,239.33 193.78,237.8 196.7,238.31 199.61,239.08 202.53,239.08 205.44,239.08 208.36,239.08 211.27,237.55 214.19,239.33 217.1,239.08 220.02,238.57 222.93,239.58 225.85,239.08 228.76,239.08 231.68,239.84 234.59,240.09 237.51,239.84 240.42,240.85 243.33,238.31 243.33,240.85 240.42,240.85 237.51,240.85 234.59,240.85 231.68,240.85 228.76,240.85 225.85,240.85 222.93,240.85 220.02,240.85 217.1,240.85 214.19,240.85 211.27,240.85 208.36,240.85 205.44,240.85 202.53,240.85 199.61,240.85 196.7,240.85 193.78,240.85 190.87,240.85 187.95,240.85 185.04,240.85 182.12,240.85 179.21,240.85 176.29,240.85 173.38,240.85 170.46,240.85 167.55,240.85 164.63,240.85 161.72,240.85 158.8,240.85 155.89,240.85 152.97,240.85 150.06,240.85 147.14,240.85 144.23,240.85 141.31,240.85 138.4,240.85 135.48,240.85 132.57,240.85 129.65,240.85 126.74,240.85 123.82,240.85 120.91,240.85 117.99,240.85 115.08,240.85 112.16,240.85 109.25,240.85 106.33,240.85 103.42,240.85 100.51,240.85 97.59,240.85 94.68,240.85 91.76,240.85 88.85,240.85 85.93,240.85 83.02,240.85 80.1,240.85 77.19,240.85 74.27,240.85 71.36,240.85 68.44,240.85 65.53,240.85 62.61,240.85 59.7,240.85 56.78,240.85 53.87,240.85 50.95,240.85 48.04,240.85 45.12,240.85 42.21,240.85 39.29,240.85 36.38,240.85 33.46,240.85 30.55,240.85 27.63,240.85 24.72,240.85 21.8,240.85 18.89,240.85 15.97,240.85 13.06,240.85 10.14,240.85 7.23,240.85" style="fill: url(#simple-C8FF0EFF); stroke: none" clip-path="url(#clip_5_48_377_37_245_08_38_85)" />
  <polyline points="7.23,240.85 10.14,240.85 13.06,240.6 15.97,240.35 18.89,240.85 21.8,240.09 24.72,239.08 27.63,238.57 30.55,236.53 33.46,235.77 36.38,234.76 39.29,231.71 42.21,230.43 45.12,229.42 48.04,226.37 50.95,227.64 53.87,222.81 56.78,225.86 59.7,222.56 62.61,224.34 65.53,224.34 68.44,223.57 71.36,215.95 74.27,219.76 77.19,217.47 80.1,222.3 83.02,217.47 85.93,217.98 88.85,221.03 91.76,220.27 94.68,217.22 97.59,221.03 100.51,222.56 103.42,227.39 106.33,226.62 109.25,223.32 112.16,227.39 115.08,225.61 117.99,230.43 120.91,229.93 123.82,229.67 126.74,228.91 129.65,232.21 132.57,230.94 135.48,233.48 138.4,234.5 141.31,234.5 144.23,234.5 147.14,233.74 150.06,234.25 152.97,236.79 155.89,237.3 158.8,235.26 161.72,235.26 164.63,236.28 167.55,238.06 170.46,238.06 173.38,239.08 176.29,238.31 179.21,237.3 182.12,238.57 185.04,239.33 187.95,238.82 190.87,239.33 193.78,237.8 196.7,238.31 199.61,239.08 202.53,239.08 205.44,239.08 208.36,239.08 211.27,237.55 214.19,239.33 217.1,239.08 220.02,238.57 222.93,239.58 225.85,239.08 228.76,239.08 231.68,239.84 234.59,240.09 237.51,239.84 240.42,240.85 243.33,238.31" style="stroke: none" clip-path="url(#clip_5_48_377_37_245_08_38_85)" />
  <polygon points="7.23,252.71 10.14,252.97 13.06,252.97 15.97,252.97 18.89,252.21 21.8,251.7 24.72,250.93 27.63,250.68 30.55,247.12 33.46,246.61 36.38,243.82 39.29,246.11 42.21,242.04 45.12,242.29 48.04,237.47 50.95,240.01 53.87,236.96 56.78,235.94 59.7,235.69 62.61,236.45 65.53,232.89 68.44,234.92 71.36,231.88 74.27,227.3 77.19,228.32 80.1,228.83 83.02,231.62 85.93,229.84 88.85,231.62 91.76,231.37 94.68,229.59 97.59,222.47 100.51,231.37 103.42,229.33 106.33,233.65 109.25,235.94 112.16,238.74 115.08,236.96 117.99,243.31 120.91,239.75 123.82,240.52 126.74,241.79 129.65,243.31 132.57,242.29 135.48,242.29 138.4,241.28 141.31,246.36 144.23,244.07 147.14,246.36 150.06,244.07 152.97,246.87 155.89,248.39 158.8,249.92 161.72,247.63 164.63,249.66 167.55,250.68 170.46,248.65 173.38,250.93 176.29,250.43 179.21,250.17 182.12,249.92 185.04,250.43 187.95,251.44 190.87,249.66 193.78,250.43 196.7,249.66 199.61,250.93 202.53,251.44 205.44,251.95 208.36,250.68 211.27,250.68 214.19,250.93 217.1,250.43 220.02,249.92 222.93,249.41 225.85,250.68 228.76,251.44 231.68,251.19 234.59,251.44 237.51,252.71 240.42,251.7 243.33,249.16 243.33,252.97 240.42,252.97 237.51,252.97 234.59,252.97 231.68,252.97 228.76,252.97 225.85,252.97 222.93,252.97 220.02,252.97 217.1,252.97 214.19,252.97 211.27,252.97 208.36,252.97 205.44,252.97 202.53,252.97 199.61,252.97 196.7,252.97 193.78,252.97 190.87,252.97 187.95,252.97 185.04,252.97 182.12,252.97 179.21,252.97 176.29,252.97 173.38,252.97 170.46,252.97 167.55,252.97 164.63,252.97 161.72,252.97 158.8,252.97 155.89,252.97 152.97,252.97 150.06,252.97 147.14,252.97 144.23,252.97 141.31,252.97 138.4,252.97 135.48,252.97 132.57,252.97 129.65,252.97 126.74,252.97 123.82,252.97 120.91,252.97 117.99,252.97 115.08,252.97 112.16,252.97 109.25,252.97 106.33,252.97 103.42,252.97 100.51,252.97 97.59,252.97 94.68,252.97 91.76,252.97 88.85,252.97 85.93,252.97 83.02,252.97 80.1,252.97 77.19,252.97 74.27,252.97 71.36,252.97 68.44,252.97 65.53,252.97 62.61,252.97 59.7,252.97 56.78,252.97 53.87,252.97 50.95,252.97 48.04,252.97 45.12,252.97 42.21,252.97 39.29,252.97 36.38,252.97 33.46,252.97 30.55,252.97 27.63,252.97 24.72,252.97 21.8,252.97 18.89,252.97 15.97,252.97 13.06,252.97 10.14,252.97 7.23,252.97" style="fill: url(#simple-C8FF0EFF); stroke: none" clip-path="url(#clip_5_48_377_37_245_08_38_85)" />
  <polyline points="7.23,252.71 10.14,252.97 13.06,252.97 15.97,252.97 18.89,252.21 21.8,251.7 24.72,250.93 27.63,250.68 30.55,247.12 33.46,246.61 36.38,243.82 39.29,246.11 42.21,242.04 45.12,242.29 48.04,237.47 50.95,240.01 53.87,236.96 56.78,235.94 59.7,235.69 62.61,236.45 65.53,232.89 68.44,234.92 71.36,231.88 74.27,227.3 77.19,228.32 80.1,228.83 83.02,231.62 85.93,229.84 88.85,231.62 91.76,231.37 94.68,229.59 97.59,222.47 100.51,231.37 103.42,229.33 106.33,233.65 109.25,235.94 112.16,238.74 115.08,236.96 117.99,243.31 120.91,239.75 123.82,240.52 126.74,241.79 129.65,243.31 132.57,242.29 135.48,242.29 138.4,241.28 141.31,246.36 144.23,244.07 147.14,246.36 150.06,244.07 152.97,246.87 155.89,248.39 158.8,249.92 161.72,247.63 164.63,249.66 167.55,250.68 170.46,248.65 173.38,250.93 176.29,250.43 179.21,250.17 182.12,249.92 185.04,250.43 187.95,251.44 190.87,249.66 193.78,250.43 196.7,249.66 199.61,250.93 202.53,251.44 205.44,251.95 208.36,250.68 211.27,250.68 214.19,250.93 217.1,250.43 220.02,249.92 222.93,249.41 225.85,250.68 228.76,251.44 231.68,251.19 234.59,251.44 237.51,252.71 240.42,251.7 243.33,249.16" style="stroke: none" clip-path="url(#clip_5_48_377_37_245_08_38_85)" />
  <polygon points="7.23,265.08 10.14,265.08 13.06,265.08 15.97,265.08 18.89,264.83 21.8,264.57 24.72,263.3 27.63,262.29 30.55,261.78 33.46,258.22 36.38,257.2 39.29,257.46 42.21,254.66 45.12,254.41 48.04,253.9 50.95,251.61 53.87,248.31 56.78,249.07 59.7,246.02 62.61,246.28 65.53,247.04 68.44,245.26 71.36,247.55 74.27,248.05 77.19,243.99 80.1,242.72 83.02,241.19 85.93,241.96 88.85,241.45 91.76,241.96 94.68,238.65 97.59,239.16 100.51,242.72 103.42,244.75 106.33,242.97 109.25,247.55 112.16,246.53 115.08,249.83 117.99,250.85 120.91,254.66 123.82,253.9 126.74,254.66 129.65,256.69 132.57,254.41 135.48,254.92 138.4,252.63 141.31,256.69 144.23,256.69 147.14,257.46 150.06,257.97 152.97,261.27 155.89,259.24 158.8,257.97 161.72,261.52 164.63,260 167.55,260.76 170.46,262.03 173.38,262.03 176.29,262.29 179.21,261.52 182.12,263.05 185.04,262.29 187.95,262.29 190.87,262.29 193.78,263.05 196.7,262.29 199.61,263.56 202.53,263.81 205.44,262.29 208.36,262.79 211.27,262.79 214.19,264.32 217.1,263.81 220.02,262.54 222.93,264.32 225.85,263.56 228.76,262.29 231.68,262.54 234.59,263.56 237.51,263.56 240.42,264.83 243.33,261.78 243.33,265.08 240.42,265.08 237.51,265.08 234.59,265.08 231.68,265.08 228.76,265.08 225.85,265.08 222.93,265.08 220.02,265.08 217.1,265.08 214.19,265.08 211.27,265.08 208.36,265.08 205.44,265.08 202.53,265.08 199.61,265.08 196.7,265.08 193.78,265.08 190.87,265.08 187.95,265.08 185.04,265.08 182.12,265.08 179.21,265.08 176.29,265.08 173.38,265.08 170.46,265.08 167.55,265.08 164.63,265.08 161.72,265.08 158.8,265.08 155.89,265.08 152.97,265.08 150.06,265.08 147.14,265.08 144.23,265.08 141.31,265.08 138.4,265.08 135.48,265.08 132.57,265.08 129.65,265.08 126.74,265.08 123.82,265.08 120.91,265.08 117.99,265.08 115.08,265.08 112.16,265.08 109.25,265.08 106.33,265.08 103.42,265.08 100.51,265.08 97.59,265.08 94.68,265.08 91.76,265.08 88.85,265.08 85.93,265.08 83.02,265.08 80.1,265.08 77.19,265.08 74.27,265.08 71.36,265.08 68.44,265.08 65.53,265.08 62.61,265.08 59.7,265.08 56.78,265.08 53.87,265.08 50.95,265.08 48.04,265.08 45.12,265.08 42.21,265.08 39.29,265.08 36.38,265.08 33.46,265.08 30.55,265.08 27.63,265.08 24.72,265.08 21.8,265.08 18.89,265.08 15.97,265.08 13.06,265.08 10.14,265.08 7.23,265.08" style="fill: url(#simple-C8FF0EFF); stroke: none" clip-path="url(#clip_5_48_377_37_245_08_38_85)" />
  <polyline points="7.23,265.08 10.14,265.08 13.06,265.08 15.97,265.08 18.89,264.83 21.8,264.57 24.72,263.3 27.63,262.29 30.55,261.78 33.46,258.22 36.38,257.2 39.29,257.46 42.21,254.66 45.12,254.41 48.04,253.9 50.95,251.61 53.87,248.31 56.78,249.07 59.7,246.02 62.61,246.28 65.53,247.04 68.44,245.26 71.36,247.55 74.27,248.05 77.19,243.99 80.1,242.72 83.02,241.19 85.93,241.96 88.85,241.45 91.76,241.96 94.68,238.65 97.59,239.16 100.51,242.72 103.42,244.75 106.33,242.97 109.25,247.55 112.16,246.53 115.08,249.83 117.99,250.85 120.91,254.66 123.82,253.9 126.74,254.66 129.65,256.69 132.57,254.41 135.48,254.92 138.4,252.63 141.31,256.69 144.23,256.69 147.14,257.46 150.06,257.97 152.97,261.27 155.89,259.24 158.8,257.97 161.72,261.52 164.63,260 167.55,260.76 170.46,262.03 173.38,262.03 176.29,262.29 179.21,261.52 182.12,263.05 185.04,262.29 187.95,262.29 190.87,262.29 193.78,263.05 196.7,262.29 199.61,263.56 202.53,263.81 205.44,262.29 208.36,262.79 211.27,262.79 214.19,264.32 217.1,263.81 220.02,262.54 222.93,264.32 225.85,263.56 228.76,262.29 231.68,262.54 234.59,263.56 237.51,263.56 240.42,264.83 243.33,261.78" style="stroke: none" clip-path="url(#clip_5_48_377_37_245_08_38_85)" />
  <polygon points="7.23,277.19 10.14,277.19 13.06,276.69 15.97,276.94 18.89,276.94 21.8,276.43 24.72,275.16 27.63,274.91 30.55,274.14 33.46,272.37 36.38,270.08 39.29,269.82 42.21,269.06 45.12,268.3 48.04,266.52 50.95,267.03 53.87,263.73 56.78,259.41 59.7,263.47 62.61,261.69 65.53,257.88 68.44,260.17 71.36,258.13 74.27,260.42 77.19,251.53 80.1,258.13 83.02,253.56 85.93,256.1 88.85,252.54 91.76,251.53 94.68,260.68 97.59,259.15 100.51,254.83 103.42,258.13 106.33,256.1 109.25,259.41 112.16,260.42 115.08,259.66 117.99,263.47 120.91,265.5 123.82,263.73 126.74,267.03 129.65,265.5 132.57,266.01 135.48,270.08 138.4,269.57 141.31,266.77 144.23,267.79 147.14,271.1 150.06,270.33 152.97,269.82 155.89,271.1 158.8,272.37 161.72,271.86 164.63,272.37 167.55,274.65 170.46,272.62 173.38,274.65 176.29,273.38 179.21,274.65 182.12,274.65 185.04,274.65 187.95,275.67 190.87,275.16 193.78,274.14 196.7,274.91 199.61,275.16 202.53,276.18 205.44,274.91 208.36,274.14 211.27,275.16 214.19,274.4 217.1,273.89 220.02,274.4 222.93,276.18 225.85,276.69 228.76,275.42 231.68,274.91 234.59,276.43 237.51,276.18 240.42,275.92 243.33,272.87 243.33,277.19 240.42,277.19 237.51,277.19 234.59,277.19 231.68,277.19 228.76,277.19 225.85,277.19 222.93,277.19 220.02,277.19 217.1,277.19 214.19,277.19 211.27,277.19 208.36,277.19 205.44,277.19 202.53,277.19 199.61,277.19 196.7,277.19 193.78,277.19 190.87,277.19 187.95,277.19 185.04,277.19 182.12,277.19 179.21,277.19 176.29,277.19 173.38,277.19 170.46,277.19 167.55,277.19 164.63,277.19 161.72,277.19 158.8,277.19 155.89,277.19 152.97,277.19 150.06,277.19 147.14,277.19 144.23,277.19 141.31,277.19 138.4,277.19 135.48,277.19 132.57,277.19 129.65,277.19 126.74,277.19 123.82,277.19 120.91,277.19 117.99,277.19 115.08,277.19 112.16,277.19 109.25,277.19 106.33,277.19 103.42,277.19 100.51,277.19 97.59,277.19 94.68,277.19 91.76,277.19 88.85,277.19 85.93,277.19 83.02,277.19 80.1,277.19 77.19,277.19 74.27,277.19 71.36,277.19 68.44,277.19 65.53,277.19 62.61,277.19 59.7,277.19 56.78,277.19 53.87,277.19 50.95,277.19 48.04,277.19 45.12,277.19 42.21,277.19 39.29,277.19 36.38,277.19 33.46,277.19 30.55,277.19 27.63,277.19 24.72,277.19 21.8,277.19 18.89,277.19 15.97,277.19 13.06,277.19 10.14,277.19 7.23,277.19" style="fill: url(#simple-C8FF0EFF); stroke: none" clip-path="url(#clip_5_48_377_37_245_08_38_85)" />
  <polyline points="7.23,277.19 10.14,277.19 13.06,276.69 15.97,276.94 18.89,276.94 21.8,276.43 24.72,275.16 27.63,274.91 30.55,274.14 33.46,272.37 36.38,270.08 39.29,269.82 42.21,269.06 45.12,268.3 48.04,266.52 50.95,267.03 53.87,263.73 56.78,259.41 59.7,263.47 62.61,261.69 65.53,257.88 68.44,260.17 71.36,258.13 74.27,260.42 77.19,251.53 80.1,258.13 83.02,253.56 85.93,256.1 88.85,252.54 91.76,251.53 94.68,260.68 97.59,259.15 100.51,254.83 103.42,258.13 106.33,256.1 109.25,259.41 112.16,260.42 115.08,259.66 117.99,263.47 120.91,265.5 123.82,263.73 126.74,267.03 129.65,265.5 132.57,266.01 135.48,270.08 138.4,269.57 141.31,266.77 144.23,267.79 147.14,271.1 150.06,270.33 152.97,269.82 155.89,271.1 158.8,272.37 161.72,271.86 164.63,272.37 167.55,274.65 170.46,272.62 173.38,274.65 176.29,273.38 179.21,274.65 182.12,274.65 185.04,274.65 187.95,275.67 190.87,275.16 193.78,274.14 196.7,274.91 199.61,275.16 202.53,276.18 205.44,274.91 208.36,274.14 211.27,275.16 214.19,274.4 217.1,273.89 220.02,274.4 222.93,276.18 225.85,276.69 228.76,275.42 231.68,274.91 234.59,276.43 237.51,276.18 240.42,275.92 243.33,272.87" style="stroke: none" clip-path="url(#clip_5_48_377_37_245_08_38_85)" />
  <polygon points="7.23,289.31 10.14,289.31 13.06,289.31 15.97,289.31 18.89,288.8 21.8,288.55 24.72,288.55 27.63,287.27 30.55,286 33.46,284.22 36.38,283.97 39.29,282.45 42.21,283.72 45.12,284.48 48.04,279.14 50.95,278.38 53.87,279.9 56.78,274.57 59.7,275.08 62.61,277.11 65.53,274.31 68.44,277.36 71.36,271.26 74.27,272.79 77.19,274.06 80.1,271.77 83.02,266.18 85.93,269.99 88.85,266.94 91.76,271.01 94.68,269.99 97.59,267.2 100.51,265.93 103.42,270.25 106.33,272.03 109.25,266.94 112.16,273.3 115.08,271.77 117.99,274.57 120.91,272.79 123.82,277.36 126.74,277.62 129.65,277.11 132.57,276.6 135.48,278.63 138.4,277.62 141.31,278.13 144.23,279.14 147.14,280.67 150.06,282.45 152.97,283.21 155.89,282.95 158.8,283.72 161.72,283.21 164.63,282.45 167.55,286.77 170.46,284.73 173.38,285.75 176.29,287.02 179.21,287.27 182.12,284.22 185.04,285.75 187.95,287.53 190.87,285.75 193.78,286.26 196.7,287.53 199.61,287.53 202.53,288.04 205.44,287.02 208.36,285.24 211.27,285.5 214.19,287.27 217.1,288.55 220.02,288.29 222.93,287.27 225.85,288.8 228.76,287.27 231.68,287.78 234.59,287.53 237.51,288.04 240.42,289.31 243.33,286.51 243.33,289.31 240.42,289.31 237.51,289.31 234.59,289.31 231.68,289.31 228.76,289.31 225.85,289.31 222.93,289.31 220.02,289.31 217.1,289.31 214.19,289.31 211.27,289.31 208.36,289.31 205.44,289.31 202.53,289.31 199.61,289.31 196.7,289.31 193.78,289.31 190.87,289.31 187.95,289.31 185.04,289.31 182.12,289.31 179.21,289.31 176.29,289.31 173.38,289.31 170.46,289.31 167.55,289.31 164.63,289.31 161.72,289.31 158.8,289.31 155.89,289.31 152.97,289.31 150.06,289.31 147.14,289.31 144.23,289.31 141.31,289.31 138.4,289.31 135.48,289.31 132.57,289.31 129.65,289.31 126.74,289.31 123.82,289.31 120.91,289.31 117.99,289.31 115.08,289.31 112.16,289.31 109.25,289.31 106.33,289.31 103.42,289.31 100.51,289.31 97.59,289.31 94.68,289.31 91.76,289.31 88.85,289.31 85.93,289.31 83.02,289.31 80.1,289.31 77.19,289.31 74.27,289.31 71.36,289.31 68.44,289.31 65.53,289.31 62.61,289.31 59.7,289.31 56.78,289.31 53.87,289.31 50.95,289.31 48.04,289.31 45.12,289.31 42.21,289.31 39.29,289.31 36.38,289.31 33.46,289.31 30.55,289.31 27.63,289.31 24.72,289.31 21.8,289.31 18.89,289.31 15.97,289.31 13.06,289.31 10.14,289.31 7.23,289.31" style="fill: url(#simple-C8FF0EFF); stroke: none" clip-path="url(#clip_5_48_377_37_245_08_38_85)" />
  <polyline points="7.23,289.31 10.14,289.31 13.06,289.31 15.97,289.31 18.89,288.8 21.8,288.55 24.72,288.55 27.63,287.27 30.55,286 33.46,284.22 36.38,283.97 39.29,282.45 42.21,283.72 45.12,284.48 48.04,279.14 50.95,278.38 53.87,279.9 56.78,274.57 59.7,275.08 62.61,277.11 65.53,274.31 68.44,277.36 71.36,271.26 74.27,272.79 77.19,274.06 80.1,271.77 83.02,266.18 85.93,269.99 88.85,266.94 91.76,271.01 94.68,269.99 97.59,267.2 100.51,265.93 103.42,270.25 106.33,272.03 109.25,266.94 112.16,273.3 115.08,271.77 117.99,274.57 120.91,272.79 123.82,277.36 126.74,277.62 129.65,277.11 132.57,276.6 135.48,278.63 138.4,277.62 141.31,278.13 144.23,279.14 147.14,280.67 150.06,282.45 152.97,283.21 155.89,282.95 158.8,283.72 161.72,283.21 164.63,282.45 167.55,286.77 170.46,284.73 173.38,285.75 176.29,287.02 179.21,287.27 182.12,284.22 185.04,285.75 187.95,287.53 190.87,285.75 193.78,286.26 196.7,287.53 199.61,287.53 202.53,288.04 205.44,287.02 208.36,285.24 211.27,285.5 214.19,287.27 217.1,288.55 220.02,288.29 222.93,287.27 225.85,288.8 228.76,287.27 231.68,287.78 234.59,287.53 237.51,288.04 240.42,289.31 243.33,286.51" style="stroke: none" clip-path="url(#clip_5_48_377_37_245_08_38_85)" />
  <polygon points="7.23,301.42 10.14,301.42 13.06,301.42 15.97,301.17 18.89,301.17 21.8,301.17 24.72,300.4 27.63,300.15 30.55,298.12 33.46,297.61 36.38,295.58 39.29,295.32 42.21,295.83 45.12,294.31 48.04,293.8 50.95,293.03 53.87,290.49 56.78,290.75 59.7,287.44 62.61,290.24 65.53,285.16 68.44,287.7 71.36,287.19 74.27,282.36 77.19,286.94 80.1,281.09 83.02,286.68 85.93,280.58 88.85,283.63 91.76,280.84 94.68,283.12 97.59,278.55 100.51,278.04 103.42,277.53 106.33,281.09 109.25,279.31 112.16,279.06 115.08,284.65 117.99,288.46 120.91,288.21 123.82,288.46 126.74,286.68 129.65,288.46 132.57,287.7 135.48,292.02 138.4,289.99 141.31,290.75 144.23,292.53 147.14,294.31 150.06,294.56 152.97,295.58 155.89,294.05 158.8,295.07 161.72,297.1 164.63,297.61 167.55,296.85 170.46,298.63 173.38,298.12 176.29,298.37 179.21,298.88 182.12,298.37 185.04,298.88 187.95,299.39 190.87,297.86 193.78,298.88 196.7,299.9 199.61,299.13 202.53,299.9 205.44,299.39 208.36,299.64 211.27,298.37 214.19,299.9 217.1,300.15 220.02,300.15 222.93,299.9 225.85,300.4 228.76,299.64 231.68,300.4 234.59,300.15 237.51,300.66 240.42,300.66 243.33,298.12 243.33,301.42 240.42,301.42 237.51,301.42 234.59,301.42 231.68,301.42 228.76,301.42 225.85,301.42 222.93,301.42 220.02,301.42 217.1,301.42 214.19,301.42 211.27,301.42 208.36,301.42 205.44,301.42 202.53,301.42 199.61,301.42 196.7,301.42 193.78,301.42 190.87,301.42 187.95,301.42 185.04,301.42 182.12,301.42 179.21,301.42 176.29,301.42 173.38,301.42 170.46,301.42 167.55,301.42 164.63,301.42 161.72,301.42 158.8,301.42 155.89,301.42 152.97,301.42 150.06,301.42 147.14,301.42 144.23,301.42 141.31,301.42 138.4,301.42 135.48,301.42 132.57,301.42 129.65,301.42 126.74,301.42 123.82,301.42 120.91,301.42 117.99,301.42 115.08,301.42 112.16,301.42 109.25,301.42 106.33,301.42 103.42,301.42 100.51,301.42 97.59,301.42 94.68,301.42 91.76,301.42 88.85,301.42 85.93,301.42 83.02,301.42 80.1,301.42 77.19,301.42 74.27,301.42 71.36,301.42 68.44,301.42 65.53,301.42 62.61,301.42 59.7,301.42 56.78,301.42 53.87,301.42 50.95,301.42 48.04,301.42 45.12,301.42 42.21,301.42 39.29,301.42 36.38,301.42 33.46,301.42 30.55,301.42 27.63,301.42 24.72,301.42 21.8,301.42 18.89,301.42 15.97,301.42 13.06,301.42 10.14,301.42 7.23,301.42" style="fill: url(#simple-C8FF0EFF); stroke: none" clip-path="url(#clip_5_48_377_37_245_08_38_85)" />
  <polyline points="7.23,301.42 10.14,301.42 13.06,301.42 15.97,301.17 18.89,301.17 21.8,301.17 24.72,300.4 27.63,300.15 30.55,298.12 33.46,297.61 36.38,295.58 39.29,295.32 42.21,295.83 45.12,294.31 48.04,293.8 50.95,293.03 53.87,290.49 56.78,290.75 59.7,287.44 62.61,290.24 65.53,285.16 68.44,287.7 71.36,287.19 74.27,282.36 77.19,286.94 80.1,281.09 83.02,286.68 85.93,280.58 88.85,283.63 91.76,280.84 94.68,283.12 97.59,278.55 100.51,278.04 103.42,277.53 106.33,281.09 109.25,279.31 112.16,279.06 115.08,284.65 117.99,288.46 120.91,288.21 123.82,288.46 126.74,286.68 129.65,288.46 132.57,287.7 135.48,292.02 138.4,289.99 141.31,290.75 144.23,292.53 147.14,294.31 150.06,294.56 152.97,295.58 155.89,294.05 158.8,295.07 161.72,297.1 164.63,297.61 167.55,296.85 170.46,298.63 173.38,298.12 176.29,298.37 179.21,298.88 182.12,298.37 185.04,298.88 187.95,299.39 190.87,297.86 193.78,298.88 196.7,299.9 199.61,299.13 202.53,299.9 205.44,299.39 208.36,299.64 211.27,298.37 214.19,299.9 217.1,300.15 220.02,300.15 222.93,299.9 225.85,300.4 228.76,299.64 231.68,300.4 234.59,300.15 237.51,300.66 240.42,300.66 243.33,298.12" style="stroke: none" clip-path="url(#clip_5_48_377_37_245_08_38_85)" />
  <polygon points="7.23,313.53 10.14,313.53 13.06,313.53 15.97,313.53 18.89,313.03 21.8,312.26 24.72,311.25 27.63,312.52 30.55,310.48 33.46,308.71 36.38,306.93 39.29,306.42 42.21,308.2 45.12,307.18 48.04,302.86 50.95,302.86 53.87,302.1 56.78,297.78 59.7,298.29 62.61,297.78 65.53,297.78 68.44,296.25 71.36,292.19 74.27,295.49 77.19,291.68 80.1,293.97 83.02,291.93 85.93,291.17 88.85,292.7 91.76,287.61 94.68,291.43 97.59,287.61 100.51,288.12 103.42,291.93 106.33,290.41 109.25,292.44 112.16,292.95 115.08,293.2 117.99,296.25 120.91,296 123.82,300.07 126.74,294.47 129.65,302.1 132.57,301.84 135.48,300.32 138.4,302.35 141.31,304.39 144.23,303.11 147.14,305.66 150.06,305.15 152.97,305.91 155.89,306.67 158.8,307.44 161.72,307.18 164.63,308.2 167.55,308.96 170.46,309.47 173.38,310.99 176.29,310.74 179.21,310.48 182.12,310.74 185.04,310.74 187.95,311.5 190.87,310.48 193.78,308.96 196.7,309.98 199.61,311.5 202.53,310.23 205.44,311.76 208.36,309.72 211.27,310.48 214.19,313.28 217.1,312.01 220.02,311.76 222.93,310.99 225.85,313.03 228.76,312.52 231.68,312.77 234.59,313.03 237.51,312.26 240.42,313.03 243.33,308.71 243.33,313.53 240.42,313.53 237.51,313.53 234.59,313.53 231.68,313.53 228.76,313.53 225.85,313.53 222.93,313.53 220.02,313.53 217.1,313.53 214.19,313.53 211.27,313.53 208.36,313.53 205.44,313.53 202.53,313.53 199.61,313.53 196.7,313.53 193.78,313.53 190.87,313.53 187.95,313.53 185.04,313.53 182.12,313.53 179.21,313.53 176.29,313.53 173.38,313.53 170.46,313.53 167.55,313.53 164.63,313.53 161.72,313.53 158.8,313.53 155.89,313.53 152.97,313.53 150.06,313.53 147.14,313.53 144.23,313.53 141.31,313.53 138.4,313.53 135.48,313.53 132.57,313.53 129.65,313.53 126.74,313.53 123.82,313.53 120.91,313.53 117.99,313.53 115.08,313.53 112.16,313.53 109.25,313.53 106.33,313.53 103.42,313.53 100.51,313.53 97.59,313.53 94.68,313.53 91.76,313.53 88.85,313.53 85.93,313.53 83.02,313.53 80.1,313.53 77.19,313.53 74.27,313.53 71.36,313.53 68.44,313.53 65.53,313.53 62.61,313.53 59.7,313.53 56.78,313.53 53.87,313.53 50.95,313.53 48.04,313.53 45.12,313.53 42.21,313.53 39.29,313.53 36.38,313.53 33.46,313.53 30.55,313.53 27.63,313.53 24.72,313.53 21.8,313.53 18.89,313.53 15.97,313.53 13.06,313.53 10.14,313.53 7.23,313.53" style="fill: url(#simple-C8FF0EFF); stroke: none" clip-path="url(#clip_5_48_377_37_245_08_38_85)" />
  <polyline points="7.23,313.53 10.14,313.53 13.06,313.53 15.97,313.53 18.89,313.03 21.8,312.26 24.72,311.25 27.63,312.52 30.55,310.48 33.46,308.71 36.38,306.93 39.29,306.42 42.21,308.2 45.12,307.18 48.04,302.86 50.95,302.86 53.87,302.1 56.78,297.78 59.7,298.29 62.61,297.78 65.53,297.78 68.44,296.25 71.36,292.19 74.27,295.49 77.19,291.68 80.1,293.97 83.02,291.93 85.93,291.17 88.85,292.7 91.76,287.61 94.68,291.43 97.59,287.61 100.51,288.12 103.42,291.93 106.33,290.41 109.25,292.44 112.16,292.95 115.08,293.2 117.99,296.25 120.91,296 123.82,300.07 126.74,294.47 129.65,302.1 132.57,301.84 135.48,300.32 138.4,302.35 141.31,304.39 144.23,303.11 147.14,305.66 150.06,305.15 152.97,305.91 155.89,306.67 158.8,307.44 161.72,307.18 164.63,308.2 167.55,308.96 170.46,309.47 173.38,310.99 176.29,310.74 179.21,310.48 182.12,310.74 185.04,310.74 187.95,311.5 190.87,310.48 193.78,308.96 196.7,309.98 199.61,311.5 202.53,310.23 205.44,311.76 208.36,309.72 211.27,310.48 214.19,313.28 217.1,312.01 220.02,311.76 222.93,310.99 225.85,313.03 228.76,312.52 231.68,312.77 234.59,313.03 237.51,312.26 240.42,313.03 243.33,308.71" style="stroke: none" clip-path="url(#clip_5_48_377_37_245_08_38_85)" />
  <polygon points="7.23,325.39 10.14,325.65 13.06,325.65 15.97,325.39 18.89,325.39 21.8,324.63 24.72,324.38 27.63,324.63 30.55,322.09 33.46,322.09 36.38,319.29 39.29,319.55 42.21,319.04 45.12,317.01 48.04,315.48 50.95,313.7 53.87,312.43 56.78,310.65 59.7,314.72 62.61,309.13 65.53,308.11 68.44,310.4 71.36,311.67 74.27,299.98 77.19,306.59 80.1,298.71 83.02,305.57 85.93,299.98 88.85,299.73 91.76,297.19 94.68,295.91 97.59,297.69 100.51,297.95 103.42,295.41 106.33,299.47 109.25,295.91 112.16,300.23 115.08,303.54 117.99,304.3 120.91,306.08 123.82,308.11 126.74,309.13 129.65,306.84 132.57,308.37 135.48,313.2 138.4,309.64 141.31,312.43 144.23,316.75 147.14,316.24 150.06,316.5 152.97,315.48 155.89,316.5 158.8,319.04 161.72,318.79 164.63,318.79 167.55,322.85 170.46,318.02 173.38,317.01 176.29,322.34 179.21,320.82 182.12,321.33 185.04,322.34 187.95,322.34 190.87,323.11 193.78,323.61 196.7,322.85 199.61,323.11 202.53,323.11 205.44,324.12 208.36,323.36 211.27,322.34 214.19,324.12 217.1,323.61 220.02,323.36 222.93,324.38 225.85,323.87 228.76,324.12 231.68,324.88 234.59,323.87 237.51,325.14 240.42,325.14 243.33,321.07 243.33,325.65 240.42,325.65 237.51,325.65 234.59,325.65 231.68,325.65 228.76,325.65 225.85,325.65 222.93,325.65 220.02,325.65 217.1,325.65 214.19,325.65 211.27,325.65 208.36,325.65 205.44,325.65 202.53,325.65 199.61,325.65 196.7,325.65 193.78,325.65 190.87,325.65 187.95,325.65 185.04,325.65 182.12,325.65 179.21,325.65 176.29,325.65 173.38,325.65 170.46,325.65 167.55,325.65 164.63,325.65 161.72,325.65 158.8,325.65 155.89,325.65 152.97,325.65 150.06,325.65 147.14,325.65 144.23,325.65 141.31,325.65 138.4,325.65 135.48,325.65 132.57,325.65 129.65,325.65 126.74,325.65 123.82,325.65 120.91,325.65 117.99,325.65 115.08,325.65 112.16,325.65 109.25,325.65 106.33,325.65 103.42,325.65 100.51,325.65 97.59,325.65 94.68,325.65 91.76,325.65 88.85,325.65 85.93,325.65 83.02,325.65 80.1,325.65 77.19,325.65 74.27,325.65 71.36,325.65 68.44,325.65 65.53,325.65 62.61,325.65 59.7,325.65 56.78,325.65 53.87,325.65 50.95,325.65 48.04,325.65 45.12,325.65 42.21,325.65 39.29,325.65 36.38,325.65 33.46,325.65 30.55,325.65 27.63,325.65 24.72,325.65 21.8,325.65 18.89,325.65 15.97,325.65 13.06,325.65 10.14,325.65 7.23,325.65" style="fill: url(#simple-C8FF0EFF); stroke: none" clip-path="url(#clip_5_48_377_37_245_08_38_85)" />
  <polyline points="7.23,325.39 10.14,325.65 13.06,325.65 15.97,325.39 18.89,325.39 21.8,324.63 24.72,324.38 27.63,324.63 30.55,322.09 33.46,322.09 36.38,319.29 39.29,319.55 42.21,319.04 45.12,317.01 48.04,315.48 50.95,313.7 53.87,312.43 56.78,310.65 59.7,314.72 62.61,309.13 65.53,308.11 68.44,310.4 71.36,311.67 74.27,299.98 77.19,306.59 80.1,298.71 83.02,305.57 85.93,299.98 88.85,299.73 91.76,297.19 94.68,295.91 97.59,297.69 100.51,297.95 103.42,295.41 106.33,299.47 109.25,295.91 112.16,300.23 115.08,303.54 117.99,304.3 120.91,306.08 123.82,308.11 126.74,309.13 129.65,306.84 132.57,308.37 135.48,313.2 138.4,309.64 141.31,312.43 144.23,316.75 147.14,316.24 150.06,316.5 152.97,315.48 155.89,316.5 158.8,319.04 161.72,318.79 164.63,318.79 167.55,322.85 170.46,318.02 173.38,317.01 176.29,322.34 179.21,320.82 182.12,321.33 185.04,322.34 187.95,322.34 190.87,323.11 193.78,323.61 196.7,322.85 199.61,323.11 202.53,323.11 205.44,324.12 208.36,323.36 211.27,322.34 214.19,324.12 217.1,323.61 220.02,323.36 222.93,324.38 225.85,323.87 228.76,324.12 231.68,324.88 234.59,323.87 237.51,325.14 240.42,325.14 243.33,321.07" style="stroke: none" clip-path="url(#clip_5_48_377_37_245_08_38_85)" />
  <polygon points="7.23,337.76 10.14,337.76 13.06,337.76 15.97,337.51 18.89,337.51 21.8,336.74 24.72,335.98 27.63,335.73 30.55,334.46 33.46,332.93 36.38,330.65 39.29,333.19 42.21,327.85 45.12,328.1 48.04,327.09 50.95,324.8 53.87,327.6 56.78,325.31 59.7,323.53 62.61,322 65.53,322.51 68.44,320.99 71.36,310.32 74.27,314.38 77.19,309.81 80.1,309.3 83.02,308.79 85.93,312.6 88.85,307.77 91.76,308.28 94.68,309.3 97.59,305.49 100.51,305.74 103.42,312.09 106.33,307.01 109.25,307.77 112.16,315.14 115.08,311.33 117.99,316.41 120.91,311.59 123.82,311.33 126.74,312.09 129.65,320.73 132.57,320.23 135.48,321.75 138.4,324.29 141.31,324.29 144.23,326.83 147.14,325.56 150.06,326.32 152.97,325.56 155.89,328.36 158.8,332.17 161.72,328.87 164.63,330.65 167.55,333.19 170.46,332.42 173.38,331.41 176.29,331.92 179.21,335.22 182.12,334.2 185.04,332.93 187.95,334.46 190.87,334.97 193.78,334.71 196.7,335.73 199.61,334.2 202.53,334.97 205.44,335.22 208.36,335.98 211.27,334.97 214.19,336.49 217.1,335.98 220.02,336.24 222.93,335.73 225.85,337 228.76,334.46 231.68,336.24 234.59,336.49 237.51,336.49 240.42,337.51 243.33,333.69 243.33,337.76 240.42,337.76 237.51,337.76 234.59,337.76 231.68,337.76 228.76,337.76 225.85,337.76 222.93,337.76 220.02,337.76 217.1,337.76 214.19,337.76 211.27,337.76 208.36,337.76 205.44,337.76 202.53,337.76 199.61,337.76 196.7,337.76 193.78,337.76 190.87,337.76 187.95,337.76 185.04,337.76 182.12,337.76 179.21,337.76 176.29,337.76 173.38,337.76 170.46,337.76 167.55,337.76 164.63,337.76 161.72,337.76 158.8,337.76 155.89,337.76 152.97,337.76 150.06,337.76 147.14,337.76 144.23,337.76 141.31,337.76 138.4,337.76 135.48,337.76 132.57,337.76 129.65,337.76 126.74,337.76 123.82,337.76 120.91,337.76 117.99,337.76 115.08,337.76 112.16,337.76 109.25,337.76 106.33,337.76 103.42,337.76 100.51,337.76 97.59,337.76 94.68,337.76 91.76,337.76 88.85,337.76 85.93,337.76 83.02,337.76 80.1,337.76 77.19,337.76 74.27,337.76 71.36,337.76 68.44,337.76 65.53,337.76 62.61,337.76 59.7,337.76 56.78,337.76 53.87,337.76 50.95,337.76 48.04,337.76 45.12,337.76 42.21,337.76 39.29,337.76 36.38,337.76 33.46,337.76 30.55,337.76 27.63,337.76 24.72,337.76 21.8,337.76 18.89,337.76 15.97,337.76 13.06,337.76 10.14,337.76 7.23,337.76" style="fill: url(#simple-C8FF0EFF); stroke: none" clip-path="url(#clip_5_48_377_37_245_08_38_85)" />
  <polyline points="7.23,337.76 10.14,337.76 13.06,337.76 15.97,337.51 18.89,337.51 21.8,336.74 24.72,335.98 27.63,335.73 30.55,334.46 33.46,332.93 36.38,330.65 39.29,333.19 42.21,327.85 45.12,328.1 48.04,327.09 50.95,324.8 53.87,327.6 56.78,325.31 59.7,323.53 62.61,322 65.53,322.51 68.44,320.99 71.36,310.32 74.27,314.38 77.19,309.81 80.1,309.3 83.02,308.79 85.93,312.6 88.85,307.77 91.76,308.28 94.68,309.3 97.59,305.49 100.51,305.74 103.42,312.09 106.33,307.01 109.25,307.77 112.16,315.14 115.08,311.33 117.99,316.41 120.91,311.59 123.82,311.33 126.74,312.09 129.65,320.73 132.57,320.23 135.48,321.75 138.4,324.29 141.31,324.29 144.23,326.83 147.14,325.56 150.06,326.32 152.97,325.56 155.89,328.36 158.8,332.17 161.72,328.87 164.63,330.65 167.55,333.19 170.46,332.42 173.38,331.41 176.29,331.92 179.21,335.22 182.12,334.2 185.04,332.93 187.95,334.46 190.87,334.97 193.78,334.71 196.7,335.73 199.61,334.2 202.53,334.97 205.44,335.22 208.36,335.98 211.27,334.97 214.19,336.49 217.1,335.98 220.02,336.24 222.93,335.73 225.85,337 228.76,334.46 231.68,336.24 234.59,336.49 237.51,336.49 240.42,337.51 243.33,333.69" style="stroke: none" clip-path="url(#clip_5_48_377_37_245_08_38_85)" />
  <polygon points="7.23,349.87 10.14,349.87 13.06,349.87 15.97,349.87 18.89,349.62 21.8,348.6 24.72,348.6 27.63,348.86 30.55,346.32 33.46,345.81 36.38,344.54 39.29,343.52 42.21,339.96 45.12,341.23 48.04,339.45 50.95,336.66 53.87,336.41 56.78,336.91 59.7,331.32 62.61,330.81 65.53,329.8 68.44,330.81 71.36,326.24 74.27,324.97 77.19,327.77 80.1,319.38 83.02,321.92 85.93,324.97 88.85,325.48 91.76,321.16 94.68,321.67 97.59,320.4 100.51,320.14 103.42,317.09 106.33,313.53 109.25,321.41 112.16,315.31 115.08,321.16 117.99,327.77 120.91,325.22 123.82,323.95 126.74,326.75 129.65,332.09 132.57,334.88 135.48,332.34 138.4,331.32 141.31,336.15 144.23,337.17 147.14,340.47 150.06,339.2 152.97,339.96 155.89,342 158.8,339.45 161.72,342.76 164.63,345.05 167.55,344.54 170.46,346.06 173.38,343.01 176.29,342.76 179.21,346.32 182.12,345.3 185.04,347.08 187.95,345.81 190.87,348.6 193.78,347.33 196.7,347.59 199.61,348.35 202.53,347.08 205.44,348.6 208.36,348.1 211.27,347.59 214.19,348.35 217.1,347.59 220.02,347.59 222.93,347.84 225.85,348.1 228.76,347.59 231.68,347.59 234.59,348.86 237.51,349.37 240.42,349.62 243.33,343.77 243.33,349.87 240.42,349.87 237.51,349.87 234.59,349.87 231.68,349.87 228.76,349.87 225.85,349.87 222.93,349.87 220.02,349.87 217.1,349.87 214.19,349.87 211.27,349.87 208.36,349.87 205.44,349.87 202.53,349.87 199.61,349.87 196.7,349.87 193.78,349.87 190.87,349.87 187.95,349.87 185.04,349.87 182.12,349.87 179.21,349.87 176.29,349.87 173.38,349.87 170.46,349.87 167.55,349.87 164.63,349.87 161.72,349.87 158.8,349.87 155.89,349.87 152.97,349.87 150.06,349.87 147.14,349.87 144.23,349.87 141.31,349.87 138.4,349.87 135.48,349.87 132.57,349.87 129.65,349.87 126.74,349.87 123.82,349.87 120.91,349.87 117.99,349.87 115.08,349.87 112.16,349.87 109.25,349.87 106.33,349.87 103.42,349.87 100.51,349.87 97.59,349.87 94.68,349.87 91.76,349.87 88.85,349.87 85.93,349.87 83.02,349.87 80.1,349.87 77.19,349.87 74.27,349.87 71.36,349.87 68.44,349.87 65.53,349.87 62.61,349.87 59.7,349.87 56.78,349.87 53.87,349.87 50.95,349.87 48.04,349.87 45.12,349.87 42.21,349.87 39.29,349.87 36.38,349.87 33.46,349.87 30.55,349.87 27.63,349.87 24.72,349.87 21.8,349.87 18.89,349.87 15.97,349.87 13.06,349.87 10.14,349.87 7.23,349.87" style="fill: url(#simple-C8FF0EFF); stroke: none" clip-path="url(#clip_5_48_377_37_245_08_38_85)" />
  <polyline points="7.23,349.87 10.14,349.87 13.06,349.87 15.97,349.87 18.89,349.62 21.8,348.6 24.72,348.6 27.63,348.86 30.55,346.32 33.46,345.81 36.38,344.54 39.29,343.52 42.21,339.96 45.12,341.23 48.04,339.45 50.95,336.66 53.87,336.41 56.78,336.91 59.7,331.32 62.61,330.81 65.53,329.8 68.44,330.81 71.36,326.24 74.27,324.97 77.19,327.77 80.1,319.38 83.02,321.92 85.93,324.97 88.85,325.48 91.76,321.16 94.68,321.67 97.59,320.4 100.51,320.14 103.42,317.09 106.33,313.53 109.25,321.41 112.16,315.31 115.08,321.16 117.99,327.77 120.91,325.22 123.82,323.95 126.74,326.75 129.65,332.09 132.57,334.88 135.48,332.34 138.4,331.32 141.31,336.15 144.23,337.17 147.14,340.47 150.06,339.2 152.97,339.96 155.89,342 158.8,339.45 161.72,342.76 164.63,345.05 167.55,344.54 170.46,346.06 173.38,343.01 176.29,342.76 179.21,346.32 182.12,345.3 185.04,347.08 187.95,345.81 190.87,348.6 193.78,347.33 196.7,347.59 199.61,348.35 202.53,347.08 205.44,348.6 208.36,348.1 211.27,347.59 214.19,348.35 217.1,347.59 220.02,347.59 222.93,347.84 225.85,348.1 228.76,347.59 231.68,347.59 234.59,348.86 237.51,349.37 240.42,349.62 243.33,343.77" style="stroke: none" clip-path="url(#clip_5_48_377_37_245_08_38_85)" />
  <polygon points="7.23,361.99 10.14,361.99 13.06,361.99 15.97,361.99 18.89,361.48 21.8,361.48 24.72,359.7 27.63,359.95 30.55,358.43 33.46,358.18 36.38,355.63 39.29,355.38 42.21,356.65 45.12,353.09 48.04,353.35 50.95,351.31 53.87,349.54 56.78,348.26 59.7,346.49 62.61,346.99 65.53,346.99 68.44,341.91 71.36,340.13 74.27,341.91 77.19,341.15 80.1,334.8 83.02,333.78 85.93,331.75 88.85,329.71 91.76,336.83 94.68,336.32 97.59,330.48 100.51,335.3 103.42,332.51 106.33,329.97 109.25,332.25 112.16,334.29 115.08,333.02 117.99,333.02 120.91,332.51 123.82,337.34 126.74,337.08 129.65,340.64 132.57,339.62 135.48,343.69 138.4,346.74 141.31,348.01 144.23,350.3 147.14,349.03 150.06,351.31 152.97,351.31 155.89,353.09 158.8,351.57 161.72,352.84 164.63,354.87 167.55,353.86 170.46,354.36 173.38,356.9 176.29,356.9 179.21,356.4 182.12,357.92 185.04,357.92 187.95,358.68 190.87,358.43 193.78,360.21 196.7,359.45 199.61,358.94 202.53,360.46 205.44,358.18 208.36,359.45 211.27,359.95 214.19,360.72 217.1,359.45 220.02,360.21 222.93,360.21 225.85,358.94 228.76,360.46 231.68,361.48 234.59,360.97 237.51,360.72 240.42,361.73 243.33,355.63 243.33,361.99 240.42,361.99 237.51,361.99 234.59,361.99 231.68,361.99 228.76,361.99 225.85,361.99 222.93,361.99 220.02,361.99 217.1,361.99 214.19,361.99 211.27,361.99 208.36,361.99 205.44,361.99 202.53,361.99 199.61,361.99 196.7,361.99 193.78,361.99 190.87,361.99 187.95,361.99 185.04,361.99 182.12,361.99 179.21,361.99 176.29,361.99 173.38,361.99 170.46,361.99 167.55,361.99 164.63,361.99 161.72,361.99 158.8,361.99 155.89,361.99 152.97,361.99 150.06,361.99 147.14,361.99 144.23,361.99 141.31,361.99 138.4,361.99 135.48,361.99 132.57,361.99 129.65,361.99 126.74,361.99 123.82,361.99 120.91,361.99 117.99,361.99 115.08,361.99 112.16,361.99 109.25,361.99 106.33,361.99 103.42,361.99 100.51,361.99 97.59,361.99 94.68,361.99 91.76,361.99 88.85,361.99 85.93,361.99 83.02,361.99 80.1,361.99 77.19,361.99 74.27,361.99 71.36,361.99 68.44,361.99 65.53,361.99 62.61,361.99 59.7,361.99 56.78,361.99 53.87,361.99 50.95,361.99 48.04,361.99 45.12,361.99 42.21,361.99 39.29,361.99 36.38,361.99 33.46,361.99 30.55,361.99 27.63,361.99 24.72,361.99 21.8,361.99 18.89,361.99 15.97,361.99 13.06,361.99 10.14,361.99 7.23,361.99" style="fill: url(#simple-C8FF0EFF); stroke: none" clip-path="url(#clip_5_48_377_37_245_08_38_85)" />
  <polyline points="7.23,361.99 10.14,361.99 13.06,361.99 15.97,361.99 18.89,361.48 21.8,361.48 24.72,359.7 27.63,359.95 30.55,358.43 33.46,358.18 36.38,355.63 39.29,355.38 42.21,356.65 45.12,353.09 48.04,353.35 50.95,351.31 53.87,349.54 56.78,348.26 59.7,346.49 62.61,346.99 65.53,346.99 68.44,341.91 71.36,340.13 74.27,341.91 77.19,341.15 80.1,334.8 83.02,333.78 85.93,331.75 88.85,329.71 91.76,336.83 94.68,336.32 97.59,330.48 100.51,335.3 103.42,332.51 106.33,329.97 109.25,332.25 112.16,334.29 115.08,333.02 117.99,333.02 120.91,332.51 123.82,337.34 126.74,337.08 129.65,340.64 132.57,339.62 135.48,343.69 138.4,346.74 141.31,348.01 144.23,350.3 147.14,349.03 150.06,351.31 152.97,351.31 155.89,353.09 158.8,351.57 161.72,352.84 164.63,354.87 167.55,353.86 170.46,354.36 173.38,356.9 176.29,356.9 179.21,356.4 182.12,357.92 185.04,357.92 187.95,358.68 190.87,358.43 193.78,360.21 196.7,359.45 199.61,358.94 202.53,360.46 205.44,358.18 208.36,359.45 211.27,359.95 214.19,360.72 217.1,359.45 220.02,360.21 222.93,360.21 225.85,358.94 228.76,360.46 231.68,361.48 234.59,360.97 237.51,360.72 240.42,361.73 243.33,355.63" style="stroke: none" clip-path="url(#clip_5_48_377_37_245_08_38_85)" />
  <g clip-path="url(#clip_0_432_288_0)">
    <text textLength="18.6px" style="font-size: 8.8px; font-family: Georgia; fill: #4D4D4D" x="250.02" y="74.42" lengthAdjust="spacingAndGlyphs">
      1993
    </text>
  </g>
  <g clip-path="url(#clip_0_432_288_0)">
    <text textLength="18.71px" style="font-size: 8.8px; font-family: Georgia; fill: #4D4D4D" x="250.02" y="86.53" lengthAdjust="spacingAndGlyphs">
      1994
    </text>
  </g>
  <g clip-path="url(#clip_0_432_288_0)">
    <text textLength="18.39px" style="font-size: 8.8px; font-family: Georgia; fill: #4D4D4D" x="250.02" y="98.64" lengthAdjust="spacingAndGlyphs">
      1995
    </text>
  </g>
  <g clip-path="url(#clip_0_432_288_0)">
    <text textLength="18.72px" style="font-size: 8.8px; font-family: Georgia; fill: #4D4D4D" x="250.02" y="110.76" lengthAdjust="spacingAndGlyphs">
      1996
    </text>
  </g>
  <g clip-path="url(#clip_0_432_288_0)">
    <text textLength="18.16px" style="font-size: 8.8px; font-family: Georgia; fill: #4D4D4D" x="250.02" y="122.87" lengthAdjust="spacingAndGlyphs">
      1997
    </text>
  </g>
  <g clip-path="url(#clip_0_432_288_0)">
    <text textLength="18.99px" style="font-size: 8.8px; font-family: Georgia; fill: #4D4D4D" x="250.02" y="134.98" lengthAdjust="spacingAndGlyphs">
      1998
    </text>
  </g>
  <g clip-path="url(#clip_0_432_288_0)">
    <text textLength="18.72px" style="font-size: 8.8px; font-family: Georgia; fill: #4D4D4D" x="250.02" y="147.1" lengthAdjust="spacingAndGlyphs">
      1999
    </text>
  </g>
  <g clip-path="url(#clip_0_432_288_0)">
    <text textLength="21.12px" style="font-size: 8.8px; font-family: Georgia; fill: #4D4D4D" x="250.02" y="159.21" lengthAdjust="spacingAndGlyphs">
      2000
    </text>
  </g>
  <g clip-path="url(#clip_0_432_288_0)">
    <text textLength="19.5px" style="font-size: 8.8px; font-family: Georgia; fill: #4D4D4D" x="250.02" y="171.32" lengthAdjust="spacingAndGlyphs">
      2001
    </text>
  </g>
  <g clip-path="url(#clip_0_432_288_0)">
    <text textLength="20.63px" style="font-size: 8.8px; font-family: Georgia; fill: #4D4D4D" x="250.02" y="183.44" lengthAdjust="spacingAndGlyphs">
      2002
    </text>
  </g>
  <g clip-path="url(#clip_0_432_288_0)">
    <text textLength="20.57px" style="font-size: 8.8px; font-family: Georgia; fill: #4D4D4D" x="250.02" y="195.55" lengthAdjust="spacingAndGlyphs">
      2003
    </text>
  </g>
  <g clip-path="url(#clip_0_432_288_0)">
    <text textLength="20.69px" style="font-size: 8.8px; font-family: Georgia; fill: #4D4D4D" x="250.02" y="207.66" lengthAdjust="spacingAndGlyphs">
      2004
    </text>
  </g>
  <g clip-path="url(#clip_0_432_288_0)">
    <text textLength="20.37px" style="font-size: 8.8px; font-family: Georgia; fill: #4D4D4D" x="250.02" y="219.78" lengthAdjust="spacingAndGlyphs">
      2005
    </text>
  </g>
  <g clip-path="url(#clip_0_432_288_0)">
    <text textLength="20.7px" style="font-size: 8.8px; font-family: Georgia; fill: #4D4D4D" x="250.02" y="231.89" lengthAdjust="spacingAndGlyphs">
      2006
    </text>
  </g>
  <g clip-path="url(#clip_0_432_288_0)">
    <text textLength="20.14px" style="font-size: 8.8px; font-family: Georgia; fill: #4D4D4D" x="250.02" y="244" lengthAdjust="spacingAndGlyphs">
      2007
    </text>
  </g>
  <g clip-path="url(#clip_0_432_288_0)">
    <text textLength="20.96px" style="font-size: 8.8px; font-family: Georgia; fill: #4D4D4D" x="250.02" y="256.12" lengthAdjust="spacingAndGlyphs">
      2008
    </text>
  </g>
  <g clip-path="url(#clip_0_432_288_0)">
    <text textLength="20.7px" style="font-size: 8.8px; font-family: Georgia; fill: #4D4D4D" x="250.02" y="268.23" lengthAdjust="spacingAndGlyphs">
      2009
    </text>
  </g>
  <g clip-path="url(#clip_0_432_288_0)">
    <text textLength="19.5px" style="font-size: 8.8px; font-family: Georgia; fill: #4D4D4D" x="250.02" y="280.34" lengthAdjust="spacingAndGlyphs">
      2010
    </text>
  </g>
  <g clip-path="url(#clip_0_432_288_0)">
    <text textLength="17.88px" style="font-size: 8.8px; font-family: Georgia; fill: #4D4D4D" x="250.02" y="292.46" lengthAdjust="spacingAndGlyphs">
      2011
    </text>
  </g>
  <g clip-path="url(#clip_0_432_288_0)">
    <text textLength="19.01px" style="font-size: 8.8px; font-family: Georgia; fill: #4D4D4D" x="250.02" y="304.57" lengthAdjust="spacingAndGlyphs">
      2012
    </text>
  </g>
  <g clip-path="url(#clip_0_432_288_0)">
    <text textLength="18.95px" style="font-size: 8.8px; font-family: Georgia; fill: #4D4D4D" x="250.02" y="316.68" lengthAdjust="spacingAndGlyphs">
      2013
    </text>
  </g>
  <g clip-path="url(#clip_0_432_288_0)">
    <text textLength="19.07px" style="font-size: 8.8px; font-family: Georgia; fill: #4D4D4D" x="250.02" y="328.8" lengthAdjust="spacingAndGlyphs">
      2014
    </text>
  </g>
  <g clip-path="url(#clip_0_432_288_0)">
    <text textLength="18.75px" style="font-size: 8.8px; font-family: Georgia; fill: #4D4D4D" x="250.02" y="340.91" lengthAdjust="spacingAndGlyphs">
      2015
    </text>
  </g>
  <g clip-path="url(#clip_0_432_288_0)">
    <text textLength="19.08px" style="font-size: 8.8px; font-family: Georgia; fill: #4D4D4D" x="250.02" y="353.02" lengthAdjust="spacingAndGlyphs">
      2016
    </text>
  </g>
  <g clip-path="url(#clip_0_432_288_0)">
    <text textLength="18.52px" style="font-size: 8.8px; font-family: Georgia; fill: #4D4D4D" x="250.02" y="365.14" lengthAdjust="spacingAndGlyphs">
      2017
    </text>
  </g>
  <polyline points="5.48,377.37 245.08,377.37" style="stroke-width: 1.07" clip-path="url(#clip_0_432_288_0)" />
  <polyline points="7.23,380.11 7.23,377.37" style="stroke: #333333; stroke-width: 1.07" clip-path="url(#clip_0_432_288_0)" />
  <polyline points="36.38,380.11 36.38,377.37" style="stroke: #333333; stroke-width: 1.07" clip-path="url(#clip_0_432_288_0)" />
  <polyline points="65.53,380.11 65.53,377.37" style="stroke: #333333; stroke-width: 1.07" clip-path="url(#clip_0_432_288_0)" />
  <polyline points="94.68,380.11 94.68,377.37" style="stroke: #333333; stroke-width: 1.07" clip-path="url(#clip_0_432_288_0)" />
  <polyline points="123.82,380.11 123.82,377.37" style="stroke: #333333; stroke-width: 1.07" clip-path="url(#clip_0_432_288_0)" />
  <polyline points="152.97,380.11 152.97,377.37" style="stroke: #333333; stroke-width: 1.07" clip-path="url(#clip_0_432_288_0)" />
  <polyline points="182.12,380.11 182.12,377.37" style="stroke: #333333; stroke-width: 1.07" clip-path="url(#clip_0_432_288_0)" />
  <polyline points="211.27,380.11 211.27,377.37" style="stroke: #333333; stroke-width: 1.07" clip-path="url(#clip_0_432_288_0)" />
  <polyline points="243.33,380.11 243.33,377.37" style="stroke: #333333; stroke-width: 1.07" clip-path="url(#clip_0_432_288_0)" />
  <g clip-path="url(#clip_0_432_288_0)">
    <text textLength="9.18px" style="font-size: 8.8px; font-family: Georgia; fill: #4D4D4D" x="2.33" y="388.61" lengthAdjust="spacingAndGlyphs">
      10
    </text>
  </g>
  <g clip-path="url(#clip_0_432_288_0)">
    <text textLength="10.32px" style="font-size: 8.8px; font-family: Georgia; fill: #4D4D4D" x="31.48" y="388.61" lengthAdjust="spacingAndGlyphs">
      20
    </text>
  </g>
  <g clip-path="url(#clip_0_432_288_0)">
    <text textLength="10.26px" style="font-size: 8.8px; font-family: Georgia; fill: #4D4D4D" x="60.63" y="388.61" lengthAdjust="spacingAndGlyphs">
      30
    </text>
  </g>
  <g clip-path="url(#clip_0_432_288_0)">
    <text textLength="10.37px" style="font-size: 8.8px; font-family: Georgia; fill: #4D4D4D" x="89.78" y="388.61" lengthAdjust="spacingAndGlyphs">
      40
    </text>
  </g>
  <g clip-path="url(#clip_0_432_288_0)">
    <text textLength="10.05px" style="font-size: 8.8px; font-family: Georgia; fill: #4D4D4D" x="118.93" y="388.61" lengthAdjust="spacingAndGlyphs">
      50
    </text>
  </g>
  <g clip-path="url(#clip_0_432_288_0)">
    <text textLength="10.38px" style="font-size: 8.8px; font-family: Georgia; fill: #4D4D4D" x="148.08" y="388.61" lengthAdjust="spacingAndGlyphs">
      60
    </text>
  </g>
  <g clip-path="url(#clip_0_432_288_0)">
    <text textLength="9.82px" style="font-size: 8.8px; font-family: Georgia; fill: #4D4D4D" x="177.23" y="388.61" lengthAdjust="spacingAndGlyphs">
      70
    </text>
  </g>
  <g clip-path="url(#clip_0_432_288_0)">
    <text textLength="10.65px" style="font-size: 8.8px; font-family: Georgia; fill: #4D4D4D" x="206.38" y="388.61" lengthAdjust="spacingAndGlyphs">
      80
    </text>
  </g>
  <g clip-path="url(#clip_0_432_288_0)">
    <text textLength="10.38px" style="font-size: 8.8px; font-family: Georgia; fill: #4D4D4D" x="238.44" y="388.61" lengthAdjust="spacingAndGlyphs">
      90
    </text>
  </g>
  <g clip-path="url(#clip_0_432_288_0)">
    <text textLength="18.3px" style="font-size: 11px; font-family: Georgia" x="115.5" y="401.07" lengthAdjust="spacingAndGlyphs">
      Age
    </text>
  </g>
  <g clip-path="url(#clip_0_432_288_0)">
    <text textLength="199.25px" style="font-size: 11px; font-family: Georgia" x="5.48" y="31.06" lengthAdjust="spacingAndGlyphs">
      Data from England and Wales 1993-2017
    </text>
  </g>
  <g clip-path="url(#clip_0_432_288_0)">
    <text textLength="220.46px" style="font-size: 13.2px; font-family: Georgia" x="5.48" y="14.93" lengthAdjust="spacingAndGlyphs">
      Trends in deaths from drug poisoning
    </text>
  </g>
  <g clip-path="url(#clip_0_432_288_0)">
    <text textLength="141.09px" style="font-size: 8.8px; font-family: Georgia" x="104.23" y="415.16" lengthAdjust="spacingAndGlyphs">
      Source: Office for National Statistics
    </text>
  </g>
  <g clip-path="url(#clip_0_432_288_0)">
    <text textLength="97.12px" style="font-size: 8.8px; font-family: Georgia" x="149.59" y="424.67" lengthAdjust="spacingAndGlyphs">
      Plot by @VictimOfMaths
    </text>
  </g>
</svg>
